<?xml version="1.0" encoding="UTF-8" standalone="no"?>
<!DOCTYPE svg PUBLIC "-//W3C//DTD SVG 1.1//EN"
 "http://www.w3.org/Graphics/SVG/1.1/DTD/svg11.dtd">
<!-- Generated by graphviz version 12.2.1 (20241206.2353)
 -->
<!-- Title: dependency&#45;cruiser output Pages: 1 -->
<svg width="736pt" height="1280pt"
 viewBox="0.00 0.00 736.25 1280.36" xmlns="http://www.w3.org/2000/svg" xmlns:xlink="http://www.w3.org/1999/xlink">
<g id="graph0" class="graph" transform="scale(1 1) rotate(0) translate(4 1276.36)">
<title>dependency&#45;cruiser output</title>
<polygon fill="white" stroke="none" points="-4,4 -4,-1276.36 732.25,-1276.36 732.25,4 -4,4"/>
<g id="clust1" class="cluster">
<title>cluster_node_modules</title>
<path fill="#ffffff" stroke="black" stroke-width="2" d="M604,-175.31C604,-175.31 708.25,-175.31 708.25,-175.31 714.25,-175.31 720.25,-181.31 720.25,-187.31 720.25,-187.31 720.25,-395.31 720.25,-395.31 720.25,-401.31 714.25,-407.31 708.25,-407.31 708.25,-407.31 604,-407.31 604,-407.31 598,-407.31 592,-401.31 592,-395.31 592,-395.31 592,-187.31 592,-187.31 592,-181.31 598,-175.31 604,-175.31"/>
<text text-anchor="middle" x="656.12" y="-394.76" font-family="Helvetica,sans-Serif" font-weight="bold" font-size="9.00">node_modules</text>
</g>
<g id="clust2" class="cluster">
<title>cluster_node_modules/@fortawesome</title>
<path fill="#ffffff" stroke="black" stroke-width="2" d="M612,-299.31C612,-299.31 700.25,-299.31 700.25,-299.31 706.25,-299.31 712.25,-305.31 712.25,-311.31 712.25,-311.31 712.25,-369.31 712.25,-369.31 712.25,-375.31 706.25,-381.31 700.25,-381.31 700.25,-381.31 612,-381.31 612,-381.31 606,-381.31 600,-375.31 600,-369.31 600,-369.31 600,-311.31 600,-311.31 600,-305.31 606,-299.31 612,-299.31"/>
<text text-anchor="middle" x="656.12" y="-368.76" font-family="Helvetica,sans-Serif" font-weight="bold" font-size="9.00">@fortawesome</text>
</g>
<g id="clust3" class="cluster">
<title>cluster_src</title>
<path fill="#ffffff" stroke="black" stroke-width="2" d="M20,-415.31C20,-415.31 679.12,-415.31 679.12,-415.31 685.12,-415.31 691.12,-421.31 691.12,-427.31 691.12,-427.31 691.12,-1249.31 691.12,-1249.31 691.12,-1255.31 685.12,-1261.31 679.12,-1261.31 679.12,-1261.31 20,-1261.31 20,-1261.31 14,-1261.31 8,-1255.31 8,-1249.31 8,-1249.31 8,-427.31 8,-427.31 8,-421.31 14,-415.31 20,-415.31"/>
<text text-anchor="middle" x="349.56" y="-1248.76" font-family="Helvetica,sans-Serif" font-weight="bold" font-size="9.00">src</text>
</g>
<g id="clust4" class="cluster">
<title>cluster_src/components</title>
<path fill="#ffffff" stroke="black" stroke-width="2" d="M200.25,-559.31C200.25,-559.31 572,-559.31 572,-559.31 578,-559.31 584,-565.31 584,-571.31 584,-571.31 584,-1221.31 584,-1221.31 584,-1227.31 578,-1233.31 572,-1233.31 572,-1233.31 200.25,-1233.31 200.25,-1233.31 194.25,-1233.31 188.25,-1227.31 188.25,-1221.31 188.25,-1221.31 188.25,-571.31 188.25,-571.31 188.25,-565.31 194.25,-559.31 200.25,-559.31"/>
<text text-anchor="middle" x="386.12" y="-1220.76" font-family="Helvetica,sans-Serif" font-weight="bold" font-size="9.00">components</text>
</g>
<g id="clust5" class="cluster">
<title>cluster_src/components/Buttons</title>
<path fill="#ffffff" stroke="black" stroke-width="2" d="M468.25,-899.31C468.25,-899.31 564,-899.31 564,-899.31 570,-899.31 576,-905.31 576,-911.31 576,-911.31 576,-1029.31 576,-1029.31 576,-1035.31 570,-1041.31 564,-1041.31 564,-1041.31 468.25,-1041.31 468.25,-1041.31 462.25,-1041.31 456.25,-1035.31 456.25,-1029.31 456.25,-1029.31 456.25,-911.31 456.25,-911.31 456.25,-905.31 462.25,-899.31 468.25,-899.31"/>
<text text-anchor="middle" x="516.12" y="-1028.76" font-family="Helvetica,sans-Serif" font-weight="bold" font-size="9.00">Buttons</text>
</g>
<g id="clust6" class="cluster">
<title>cluster_src/components/LessonTasks</title>
<path fill="#ffffff" stroke="black" stroke-width="2" d="M336.25,-623.31C336.25,-623.31 435.75,-623.31 435.75,-623.31 441.75,-623.31 447.75,-629.31 447.75,-635.31 447.75,-635.31 447.75,-783.31 447.75,-783.31 447.75,-789.31 441.75,-795.31 435.75,-795.31 435.75,-795.31 336.25,-795.31 336.25,-795.31 330.25,-795.31 324.25,-789.31 324.25,-783.31 324.25,-783.31 324.25,-635.31 324.25,-635.31 324.25,-629.31 330.25,-623.31 336.25,-623.31"/>
<text text-anchor="middle" x="386" y="-782.76" font-family="Helvetica,sans-Serif" font-weight="bold" font-size="9.00">LessonTasks</text>
</g>
<g id="clust7" class="cluster">
<title>cluster_src/components/Pages</title>
<path fill="#ffffff" stroke="black" stroke-width="2" d="M208.25,-803.31C208.25,-803.31 436.25,-803.31 436.25,-803.31 442.25,-803.31 448.25,-809.31 448.25,-815.31 448.25,-815.31 448.25,-1079.31 448.25,-1079.31 448.25,-1085.31 442.25,-1091.31 436.25,-1091.31 436.25,-1091.31 208.25,-1091.31 208.25,-1091.31 202.25,-1091.31 196.25,-1085.31 196.25,-1079.31 196.25,-1079.31 196.25,-815.31 196.25,-815.31 196.25,-809.31 202.25,-803.31 208.25,-803.31"/>
<text text-anchor="middle" x="322.25" y="-1078.76" font-family="Helvetica,sans-Serif" font-weight="bold" font-size="9.00">Pages</text>
</g>
<g id="clust8" class="cluster">
<title>cluster_src/components/Pages/SignIn</title>
<path fill="#ffffff" stroke="black" stroke-width="2" d="M225.5,-927.31C225.5,-927.31 428.25,-927.31 428.25,-927.31 434.25,-927.31 440.25,-933.31 440.25,-939.31 440.25,-939.31 440.25,-997.31 440.25,-997.31 440.25,-1003.31 434.25,-1009.31 428.25,-1009.31 428.25,-1009.31 225.5,-1009.31 225.5,-1009.31 219.5,-1009.31 213.5,-1003.31 213.5,-997.31 213.5,-997.31 213.5,-939.31 213.5,-939.31 213.5,-933.31 219.5,-927.31 225.5,-927.31"/>
<text text-anchor="middle" x="326.88" y="-996.76" font-family="Helvetica,sans-Serif" font-weight="bold" font-size="9.00">SignIn</text>
</g>
<g id="clust9" class="cluster">
<title>cluster_src/components/WordCards</title>
<path fill="#ffffff" stroke="black" stroke-width="2" d="M346.75,-1099.31C346.75,-1099.31 425.25,-1099.31 425.25,-1099.31 431.25,-1099.31 437.25,-1105.31 437.25,-1111.31 437.25,-1111.31 437.25,-1169.31 437.25,-1169.31 437.25,-1175.31 431.25,-1181.31 425.25,-1181.31 425.25,-1181.31 346.75,-1181.31 346.75,-1181.31 340.75,-1181.31 334.75,-1175.31 334.75,-1169.31 334.75,-1169.31 334.75,-1111.31 334.75,-1111.31 334.75,-1105.31 340.75,-1099.31 346.75,-1099.31"/>
<text text-anchor="middle" x="386" y="-1168.76" font-family="Helvetica,sans-Serif" font-weight="bold" font-size="9.00">WordCards</text>
</g>
<g id="clust10" class="cluster">
<title>cluster_src/context</title>
<path fill="#ffffff" stroke="black" stroke-width="2" d="M470.12,-469.31C470.12,-469.31 562.12,-469.31 562.12,-469.31 568.12,-469.31 574.12,-475.31 574.12,-481.31 574.12,-481.31 574.12,-539.31 574.12,-539.31 574.12,-545.31 568.12,-551.31 562.12,-551.31 562.12,-551.31 470.12,-551.31 470.12,-551.31 464.12,-551.31 458.12,-545.31 458.12,-539.31 458.12,-539.31 458.12,-481.31 458.12,-481.31 458.12,-475.31 464.12,-469.31 470.12,-469.31"/>
<text text-anchor="middle" x="516.12" y="-538.76" font-family="Helvetica,sans-Serif" font-weight="bold" font-size="9.00">context</text>
</g>
<g id="clust11" class="cluster">
<title>cluster_src/hooks</title>
<path fill="#ffffff" stroke="black" stroke-width="2" d="M352.75,-423.31C352.75,-423.31 419.25,-423.31 419.25,-423.31 425.25,-423.31 431.25,-429.31 431.25,-435.31 431.25,-435.31 431.25,-463.31 431.25,-463.31 431.25,-469.31 425.25,-475.31 419.25,-475.31 419.25,-475.31 352.75,-475.31 352.75,-475.31 346.75,-475.31 340.75,-469.31 340.75,-463.31 340.75,-463.31 340.75,-435.31 340.75,-435.31 340.75,-429.31 346.75,-423.31 352.75,-423.31"/>
<text text-anchor="middle" x="386" y="-462.76" font-family="Helvetica,sans-Serif" font-weight="bold" font-size="9.00">hooks</text>
</g>
<!-- node_modules/@fortawesome/free&#45;solid&#45;svg&#45;icons -->
<g id="node1" class="node">
<title>node_modules/@fortawesome/free&#45;solid&#45;svg&#45;icons</title>
<g id="a_node1"><a xlink:href="https://www.npmjs.com/package/@fortawesome/free-solid-svg-icons" xlink:title="free&#45;solid&#45;svg&#45;icons">
<polygon fill="#c40b0a" fill-opacity="0.101961" stroke="black" points="704.25,-325.18 609.97,-325.18 608,-323.21 608,-307.43 702.28,-307.43 704.25,-309.4 704.25,-325.18"/>
<polyline fill="none" stroke="black" points="702.28,-323.21 608,-323.21"/>
<polyline fill="none" stroke="black" points="702.28,-323.21 702.28,-307.43"/>
<polyline fill="none" stroke="black" points="702.28,-323.21 704.25,-325.18"/>
<text text-anchor="start" x="616" y="-312.63" font-family="Helvetica,sans-Serif" font-size="9.00" fill="#c40b0a">free&#45;solid&#45;svg&#45;icons</text>
</a>
</g>
</g>
<!-- node_modules/@fortawesome/react&#45;fontawesome -->
<g id="node2" class="node">
<title>node_modules/@fortawesome/react&#45;fontawesome</title>
<g id="a_node2"><a xlink:href="https://www.npmjs.com/package/@fortawesome/react-fontawesome" xlink:title="react&#45;fontawesome">
<polygon fill="#c40b0a" fill-opacity="0.101961" stroke="black" points="703.12,-355.18 611.1,-355.18 609.12,-353.21 609.12,-337.43 701.15,-337.43 703.12,-339.4 703.12,-355.18"/>
<polyline fill="none" stroke="black" points="701.15,-353.21 609.12,-353.21"/>
<polyline fill="none" stroke="black" points="701.15,-353.21 701.15,-337.43"/>
<polyline fill="none" stroke="black" points="701.15,-353.21 703.12,-355.18"/>
<text text-anchor="start" x="617.12" y="-342.63" font-family="Helvetica,sans-Serif" font-size="9.00" fill="#c40b0a">react&#45;fontawesome</text>
</a>
</g>
</g>
<!-- node_modules/react -->
<g id="node3" class="node">
<title>node_modules/react</title>
<g id="a_node3"><a xlink:href="https://www.npmjs.com/package/react" xlink:title="react">
<polygon fill="#c40b0a" fill-opacity="0.101961" stroke="black" points="683.12,-291.18 631.1,-291.18 629.12,-289.21 629.12,-273.43 681.15,-273.43 683.12,-275.4 683.12,-291.18"/>
<polyline fill="none" stroke="black" points="681.15,-289.21 629.12,-289.21"/>
<polyline fill="none" stroke="black" points="681.15,-289.21 681.15,-273.43"/>
<polyline fill="none" stroke="black" points="681.15,-289.21 683.12,-291.18"/>
<text text-anchor="start" x="646" y="-278.63" font-family="Helvetica,sans-Serif" font-size="9.00" fill="#c40b0a">react</text>
</a>
</g>
</g>
<!-- node_modules/react&#45;dom -->
<g id="node4" class="node">
<title>node_modules/react&#45;dom</title>
<g id="a_node4"><a xlink:href="https://www.npmjs.com/package/react-dom" xlink:title="react&#45;dom">
<polygon fill="#c40b0a" fill-opacity="0.101961" stroke="black" points="684.75,-231.18 629.47,-231.18 627.5,-229.21 627.5,-213.43 682.78,-213.43 684.75,-215.4 684.75,-231.18"/>
<polyline fill="none" stroke="black" points="682.78,-229.21 627.5,-229.21"/>
<polyline fill="none" stroke="black" points="682.78,-229.21 682.78,-213.43"/>
<polyline fill="none" stroke="black" points="682.78,-229.21 684.75,-231.18"/>
<text text-anchor="start" x="635.5" y="-218.63" font-family="Helvetica,sans-Serif" font-size="9.00" fill="#c40b0a">react&#45;dom</text>
</a>
</g>
</g>
<!-- node_modules/react&#45;router&#45;dom -->
<g id="node5" class="node">
<title>node_modules/react&#45;router&#45;dom</title>
<g id="a_node5"><a xlink:href="https://www.npmjs.com/package/react-router-dom" xlink:title="react&#45;router&#45;dom">
<polygon fill="#c40b0a" fill-opacity="0.101961" stroke="black" points="698.25,-261.18 615.97,-261.18 614,-259.21 614,-243.43 696.28,-243.43 698.25,-245.4 698.25,-261.18"/>
<polyline fill="none" stroke="black" points="696.28,-259.21 614,-259.21"/>
<polyline fill="none" stroke="black" points="696.28,-259.21 696.28,-243.43"/>
<polyline fill="none" stroke="black" points="696.28,-259.21 698.25,-261.18"/>
<text text-anchor="start" x="622" y="-248.63" font-family="Helvetica,sans-Serif" font-size="9.00" fill="#c40b0a">react&#45;router&#45;dom</text>
</a>
</g>
</g>
<!-- node_modules/vite -->
<g id="node6" class="node">
<title>node_modules/vite</title>
<g id="a_node6"><a xlink:href="https://www.npmjs.com/package/vite" xlink:title="vite">
<polygon fill="#c40b0a" fill-opacity="0.101961" stroke="black" points="683.12,-201.18 631.1,-201.18 629.12,-199.21 629.12,-183.43 681.15,-183.43 683.12,-185.4 683.12,-201.18"/>
<polyline fill="none" stroke="black" points="681.15,-199.21 629.12,-199.21"/>
<polyline fill="none" stroke="black" points="681.15,-199.21 681.15,-183.43"/>
<polyline fill="none" stroke="black" points="681.15,-199.21 683.12,-201.18"/>
<text text-anchor="start" x="649" y="-188.63" font-family="Helvetica,sans-Serif" font-size="9.00" fill="#c40b0a">vite</text>
</a>
</g>
</g>
<!-- src/AppContainer.tsx -->
<g id="node7" class="node">
<title>src/AppContainer.tsx</title>
<g id="a_node7"><a xlink:href="src/AppContainer.tsx" xlink:title="AppContainer.tsx">
<path fill="#bbfeff" stroke="black" d="M174.33,-844.18C174.33,-844.18 99.67,-844.18 99.67,-844.18 96.71,-844.18 93.75,-841.22 93.75,-838.26 93.75,-838.26 93.75,-832.35 93.75,-832.35 93.75,-829.39 96.71,-826.43 99.67,-826.43 99.67,-826.43 174.33,-826.43 174.33,-826.43 177.29,-826.43 180.25,-829.39 180.25,-832.35 180.25,-832.35 180.25,-838.26 180.25,-838.26 180.25,-841.22 177.29,-844.18 174.33,-844.18"/>
<text text-anchor="start" x="101.75" y="-831.63" font-family="Helvetica,sans-Serif" font-size="9.00">AppContainer.tsx</text>
</a>
</g>
</g>
<!-- src/AppContainer.tsx&#45;&gt;node_modules/react&#45;router&#45;dom -->
<g id="edge12" class="edge">
<title>src/AppContainer.tsx&#45;&gt;node_modules/react&#45;router&#45;dom</title>
<path fill="none" stroke="#000000" stroke-opacity="0.200000" d="M138.52,-826.03C141.01,-784.65 153.06,-613.09 188.25,-477.31 230.43,-314.55 196.31,-233.39 324.25,-124.31 412.61,-48.97 499.6,-16.56 584,-96.31 595.41,-107.08 581.93,-225.28 592,-237.31 595.95,-242.02 601.09,-245.41 606.73,-247.82"/>
<polygon fill="#000000" fill-opacity="0.200000" stroke="#000000" stroke-opacity="0.200000" points="605.75,-249.7 612.11,-249.72 607.15,-245.74 605.75,-249.7"/>
</g>
<!-- src/components/Layout.tsx -->
<g id="node8" class="node">
<title>src/components/Layout.tsx</title>
<g id="a_node8"><a xlink:href="src/components/Layout.tsx" xlink:title="Layout.tsx">
<path fill="#bbfeff" stroke="black" d="M282.96,-600.18C282.96,-600.18 237.54,-600.18 237.54,-600.18 234.58,-600.18 231.62,-597.22 231.62,-594.26 231.62,-594.26 231.62,-588.35 231.62,-588.35 231.62,-585.39 234.58,-582.43 237.54,-582.43 237.54,-582.43 282.96,-582.43 282.96,-582.43 285.92,-582.43 288.88,-585.39 288.88,-588.35 288.88,-588.35 288.88,-594.26 288.88,-594.26 288.88,-597.22 285.92,-600.18 282.96,-600.18"/>
<text text-anchor="start" x="239.62" y="-587.63" font-family="Helvetica,sans-Serif" font-size="9.00">Layout.tsx</text>
</a>
</g>
</g>
<!-- src/AppContainer.tsx&#45;&gt;src/components/Layout.tsx -->
<g id="edge1" class="edge">
<title>src/AppContainer.tsx&#45;&gt;src/components/Layout.tsx</title>
<path fill="none" stroke="#000000" stroke-width="2" stroke-opacity="0.200000" d="M142.61,-826.04C160.69,-789.65 226.99,-656.23 250.72,-608.46"/>
<polygon fill="#000000" fill-opacity="0.200000" stroke="#000000" stroke-width="2" stroke-opacity="0.200000" points="252.5,-609.6 253.29,-603.29 248.74,-607.73 252.5,-609.6"/>
</g>
<!-- src/components/Loader.tsx -->
<g id="node9" class="node">
<title>src/components/Loader.tsx</title>
<g id="a_node9"><a xlink:href="src/components/Loader.tsx" xlink:title="Loader.tsx">
<path fill="#bbfeff" stroke="black" d="M409.46,-1207.18C409.46,-1207.18 362.54,-1207.18 362.54,-1207.18 359.58,-1207.18 356.62,-1204.22 356.62,-1201.26 356.62,-1201.26 356.62,-1195.35 356.62,-1195.35 356.62,-1192.39 359.58,-1189.43 362.54,-1189.43 362.54,-1189.43 409.46,-1189.43 409.46,-1189.43 412.42,-1189.43 415.38,-1192.39 415.38,-1195.35 415.38,-1195.35 415.38,-1201.26 415.38,-1201.26 415.38,-1204.22 412.42,-1207.18 409.46,-1207.18"/>
<text text-anchor="start" x="364.62" y="-1194.63" font-family="Helvetica,sans-Serif" font-size="9.00">Loader.tsx</text>
</a>
</g>
</g>
<!-- src/AppContainer.tsx&#45;&gt;src/components/Loader.tsx -->
<g id="edge2" class="edge">
<title>src/AppContainer.tsx&#45;&gt;src/components/Loader.tsx</title>
<path fill="none" stroke="#000000" stroke-width="2" stroke-opacity="0.200000" d="M174.31,-844.49C176.57,-846.12 178.6,-848.04 180.25,-850.31 196.26,-872.21 175.02,-1070.63 188.25,-1094.31 221.09,-1153.09 300.39,-1180.03 347.68,-1191.25"/>
<polygon fill="#000000" fill-opacity="0.200000" stroke="#000000" stroke-width="2" stroke-opacity="0.200000" points="347.14,-1193.28 353.45,-1192.55 348.07,-1189.18 347.14,-1193.28"/>
</g>
<!-- src/components/Pages/DictionaryPage.tsx -->
<g id="node10" class="node">
<title>src/components/Pages/DictionaryPage.tsx</title>
<g id="a_node10"><a xlink:href="src/components/Pages/DictionaryPage.tsx" xlink:title="DictionaryPage.tsx">
<path fill="#bbfeff" stroke="black" d="M300.58,-1065.18C300.58,-1065.18 219.92,-1065.18 219.92,-1065.18 216.96,-1065.18 214,-1062.22 214,-1059.26 214,-1059.26 214,-1053.35 214,-1053.35 214,-1050.39 216.96,-1047.43 219.92,-1047.43 219.92,-1047.43 300.58,-1047.43 300.58,-1047.43 303.54,-1047.43 306.5,-1050.39 306.5,-1053.35 306.5,-1053.35 306.5,-1059.26 306.5,-1059.26 306.5,-1062.22 303.54,-1065.18 300.58,-1065.18"/>
<text text-anchor="start" x="222" y="-1052.63" font-family="Helvetica,sans-Serif" font-size="9.00">DictionaryPage.tsx</text>
</a>
</g>
</g>
<!-- src/AppContainer.tsx&#45;&gt;src/components/Pages/DictionaryPage.tsx -->
<g id="edge3" class="edge">
<title>src/AppContainer.tsx&#45;&gt;src/components/Pages/DictionaryPage.tsx</title>
<path fill="none" stroke="#000000" stroke-width="2" stroke-opacity="0.200000" d="M174.29,-844.5C176.55,-846.13 178.59,-848.05 180.25,-850.31 192.86,-867.4 174.53,-1025.09 188.25,-1041.31 192.77,-1046.65 198.67,-1050.38 205.14,-1052.94"/>
<polygon fill="#000000" fill-opacity="0.200000" stroke="#000000" stroke-width="2" stroke-opacity="0.200000" points="204.34,-1054.89 210.69,-1054.7 205.6,-1050.89 204.34,-1054.89"/>
</g>
<!-- src/components/Pages/HomePage.tsx -->
<g id="node11" class="node">
<title>src/components/Pages/HomePage.tsx</title>
<g id="a_node11"><a xlink:href="src/components/Pages/HomePage.tsx" xlink:title="HomePage.tsx">
<path fill="#bbfeff" stroke="black" d="M292.33,-829.18C292.33,-829.18 228.17,-829.18 228.17,-829.18 225.21,-829.18 222.25,-826.22 222.25,-823.26 222.25,-823.26 222.25,-817.35 222.25,-817.35 222.25,-814.39 225.21,-811.43 228.17,-811.43 228.17,-811.43 292.33,-811.43 292.33,-811.43 295.29,-811.43 298.25,-814.39 298.25,-817.35 298.25,-817.35 298.25,-823.26 298.25,-823.26 298.25,-826.22 295.29,-829.18 292.33,-829.18"/>
<text text-anchor="start" x="230.25" y="-816.63" font-family="Helvetica,sans-Serif" font-size="9.00">HomePage.tsx</text>
</a>
</g>
</g>
<!-- src/AppContainer.tsx&#45;&gt;src/components/Pages/HomePage.tsx -->
<g id="edge4" class="edge">
<title>src/AppContainer.tsx&#45;&gt;src/components/Pages/HomePage.tsx</title>
<path fill="none" stroke="#000000" stroke-width="2" stroke-opacity="0.200000" d="M180.75,-830.02C191.29,-828.71 202.63,-827.31 213.32,-825.99"/>
<polygon fill="#000000" fill-opacity="0.200000" stroke="#000000" stroke-width="2" stroke-opacity="0.200000" points="213.42,-828.09 219.12,-825.27 212.9,-823.92 213.42,-828.09"/>
</g>
<!-- src/components/Pages/LessonPage.tsx -->
<g id="node12" class="node">
<title>src/components/Pages/LessonPage.tsx</title>
<g id="a_node12"><a xlink:href="src/components/Pages/LessonPage.tsx" xlink:title="LessonPage.tsx">
<path fill="#bbfeff" stroke="black" d="M294.96,-889.18C294.96,-889.18 225.54,-889.18 225.54,-889.18 222.58,-889.18 219.62,-886.22 219.62,-883.26 219.62,-883.26 219.62,-877.35 219.62,-877.35 219.62,-874.39 222.58,-871.43 225.54,-871.43 225.54,-871.43 294.96,-871.43 294.96,-871.43 297.92,-871.43 300.88,-874.39 300.88,-877.35 300.88,-877.35 300.88,-883.26 300.88,-883.26 300.88,-886.22 297.92,-889.18 294.96,-889.18"/>
<text text-anchor="start" x="227.62" y="-876.63" font-family="Helvetica,sans-Serif" font-size="9.00">LessonPage.tsx</text>
</a>
</g>
</g>
<!-- src/AppContainer.tsx&#45;&gt;src/components/Pages/LessonPage.tsx -->
<g id="edge5" class="edge">
<title>src/AppContainer.tsx&#45;&gt;src/components/Pages/LessonPage.tsx</title>
<path fill="none" stroke="#000000" stroke-width="2" stroke-opacity="0.200000" d="M171.6,-844.53C174.7,-846.16 177.65,-848.07 180.25,-850.31 185.97,-855.24 182.21,-860.77 188.25,-865.31 194.83,-870.25 202.68,-873.65 210.72,-875.97"/>
<polygon fill="#000000" fill-opacity="0.200000" stroke="#000000" stroke-width="2" stroke-opacity="0.200000" points="210.2,-878.01 216.53,-877.37 211.19,-873.92 210.2,-878.01"/>
</g>
<!-- src/components/Pages/SignIn/SignInPage.tsx -->
<g id="node13" class="node">
<title>src/components/Pages/SignIn/SignInPage.tsx</title>
<g id="a_node13"><a xlink:href="src/components/Pages/SignIn/SignInPage.tsx" xlink:title="SignInPage.tsx">
<path fill="#bbfeff" stroke="black" d="M293.08,-968.18C293.08,-968.18 227.42,-968.18 227.42,-968.18 224.46,-968.18 221.5,-965.22 221.5,-962.26 221.5,-962.26 221.5,-956.35 221.5,-956.35 221.5,-953.39 224.46,-950.43 227.42,-950.43 227.42,-950.43 293.08,-950.43 293.08,-950.43 296.04,-950.43 299,-953.39 299,-956.35 299,-956.35 299,-962.26 299,-962.26 299,-965.22 296.04,-968.18 293.08,-968.18"/>
<text text-anchor="start" x="229.5" y="-955.63" font-family="Helvetica,sans-Serif" font-size="9.00">SignInPage.tsx</text>
</a>
</g>
</g>
<!-- src/AppContainer.tsx&#45;&gt;src/components/Pages/SignIn/SignInPage.tsx -->
<g id="edge6" class="edge">
<title>src/AppContainer.tsx&#45;&gt;src/components/Pages/SignIn/SignInPage.tsx</title>
<path fill="none" stroke="#000000" stroke-width="2" stroke-opacity="0.200000" d="M174.19,-844.58C176.48,-846.19 178.54,-848.09 180.25,-850.31 193.31,-867.27 173.87,-930.45 188.25,-946.31 194.56,-953.27 203.28,-957.27 212.44,-959.44"/>
<polygon fill="#000000" fill-opacity="0.200000" stroke="#000000" stroke-width="2" stroke-opacity="0.200000" points="212.04,-961.51 218.31,-960.48 212.77,-957.37 212.04,-961.51"/>
</g>
<!-- src/components/Pages/StudyCategoryPage.tsx -->
<g id="node14" class="node">
<title>src/components/Pages/StudyCategoryPage.tsx</title>
<g id="a_node14"><a xlink:href="src/components/Pages/StudyCategoryPage.tsx" xlink:title="StudyCategoryPage.tsx">
<path fill="#bbfeff" stroke="black" d="M310.33,-1035.18C310.33,-1035.18 210.17,-1035.18 210.17,-1035.18 207.21,-1035.18 204.25,-1032.22 204.25,-1029.26 204.25,-1029.26 204.25,-1023.35 204.25,-1023.35 204.25,-1020.39 207.21,-1017.43 210.17,-1017.43 210.17,-1017.43 310.33,-1017.43 310.33,-1017.43 313.29,-1017.43 316.25,-1020.39 316.25,-1023.35 316.25,-1023.35 316.25,-1029.26 316.25,-1029.26 316.25,-1032.22 313.29,-1035.18 310.33,-1035.18"/>
<text text-anchor="start" x="212.25" y="-1022.63" font-family="Helvetica,sans-Serif" font-size="9.00">StudyCategoryPage.tsx</text>
</a>
</g>
</g>
<!-- src/AppContainer.tsx&#45;&gt;src/components/Pages/StudyCategoryPage.tsx -->
<g id="edge7" class="edge">
<title>src/AppContainer.tsx&#45;&gt;src/components/Pages/StudyCategoryPage.tsx</title>
<path fill="none" stroke="#000000" stroke-width="2" stroke-opacity="0.200000" d="M174.27,-844.52C176.54,-846.15 178.58,-848.06 180.25,-850.31 191.01,-864.77 176.47,-998.67 188.25,-1012.31 190.59,-1015.01 193.28,-1017.28 196.22,-1019.19"/>
<polygon fill="#000000" fill-opacity="0.200000" stroke="#000000" stroke-width="2" stroke-opacity="0.200000" points="195.01,-1020.93 201.3,-1021.83 196.94,-1017.2 195.01,-1020.93"/>
</g>
<!-- src/components/Pages/StudyPage.tsx -->
<g id="node15" class="node">
<title>src/components/Pages/StudyPage.tsx</title>
<g id="a_node15"><a xlink:href="src/components/Pages/StudyPage.tsx" xlink:title="StudyPage.tsx">
<path fill="#bbfeff" stroke="black" d="M291.58,-919.18C291.58,-919.18 228.92,-919.18 228.92,-919.18 225.96,-919.18 223,-916.22 223,-913.26 223,-913.26 223,-907.35 223,-907.35 223,-904.39 225.96,-901.43 228.92,-901.43 228.92,-901.43 291.58,-901.43 291.58,-901.43 294.54,-901.43 297.5,-904.39 297.5,-907.35 297.5,-907.35 297.5,-913.26 297.5,-913.26 297.5,-916.22 294.54,-919.18 291.58,-919.18"/>
<text text-anchor="start" x="231" y="-906.63" font-family="Helvetica,sans-Serif" font-size="9.00">StudyPage.tsx</text>
</a>
</g>
</g>
<!-- src/AppContainer.tsx&#45;&gt;src/components/Pages/StudyPage.tsx -->
<g id="edge8" class="edge">
<title>src/AppContainer.tsx&#45;&gt;src/components/Pages/StudyPage.tsx</title>
<path fill="none" stroke="#000000" stroke-width="2" stroke-opacity="0.200000" d="M173.57,-844.5C176.06,-846.13 178.34,-848.05 180.25,-850.31 193.38,-865.81 174.12,-880.71 188.25,-895.31 195.09,-902.37 204.37,-906.53 213.96,-908.88"/>
<polygon fill="#000000" fill-opacity="0.200000" stroke="#000000" stroke-width="2" stroke-opacity="0.200000" points="213.53,-910.94 219.81,-910.01 214.32,-906.81 213.53,-910.94"/>
</g>
<!-- src/components/Pages/UserProgressPage.tsx -->
<g id="node16" class="node">
<title>src/components/Pages/UserProgressPage.tsx</title>
<g id="a_node16"><a xlink:href="src/components/Pages/UserProgressPage.tsx" xlink:title="UserProgressPage.tsx">
<path fill="#bbfeff" stroke="black" d="M308.08,-859.18C308.08,-859.18 212.42,-859.18 212.42,-859.18 209.46,-859.18 206.5,-856.22 206.5,-853.26 206.5,-853.26 206.5,-847.35 206.5,-847.35 206.5,-844.39 209.46,-841.43 212.42,-841.43 212.42,-841.43 308.08,-841.43 308.08,-841.43 311.04,-841.43 314,-844.39 314,-847.35 314,-847.35 314,-853.26 314,-853.26 314,-856.22 311.04,-859.18 308.08,-859.18"/>
<text text-anchor="start" x="214.5" y="-846.63" font-family="Helvetica,sans-Serif" font-size="9.00">UserProgressPage.tsx</text>
</a>
</g>
</g>
<!-- src/AppContainer.tsx&#45;&gt;src/components/Pages/UserProgressPage.tsx -->
<g id="edge9" class="edge">
<title>src/AppContainer.tsx&#45;&gt;src/components/Pages/UserProgressPage.tsx</title>
<path fill="none" stroke="#000000" stroke-width="2" stroke-opacity="0.200000" d="M180.75,-840.59C186.12,-841.26 191.69,-841.95 197.28,-842.64"/>
<polygon fill="#000000" fill-opacity="0.200000" stroke="#000000" stroke-width="2" stroke-opacity="0.200000" points="196.83,-844.7 203.05,-843.35 197.35,-840.53 196.83,-844.7"/>
</g>
<!-- src/context/UserDataContext.tsx -->
<g id="node17" class="node">
<title>src/context/UserDataContext.tsx</title>
<g id="a_node17"><a xlink:href="src/context/UserDataContext.tsx" xlink:title="UserDataContext.tsx">
<path fill="#bbfeff" stroke="black" d="M560.21,-525.18C560.21,-525.18 472.04,-525.18 472.04,-525.18 469.08,-525.18 466.12,-522.22 466.12,-519.26 466.12,-519.26 466.12,-513.35 466.12,-513.35 466.12,-510.39 469.08,-507.43 472.04,-507.43 472.04,-507.43 560.21,-507.43 560.21,-507.43 563.17,-507.43 566.12,-510.39 566.12,-513.35 566.12,-513.35 566.12,-519.26 566.12,-519.26 566.12,-522.22 563.17,-525.18 560.21,-525.18"/>
<text text-anchor="start" x="474.12" y="-512.63" font-family="Helvetica,sans-Serif" font-size="9.00">UserDataContext.tsx</text>
</a>
</g>
</g>
<!-- src/AppContainer.tsx&#45;&gt;src/context/UserDataContext.tsx -->
<g id="edge10" class="edge">
<title>src/AppContainer.tsx&#45;&gt;src/context/UserDataContext.tsx</title>
<path fill="none" stroke="#000000" stroke-width="2" stroke-opacity="0.200000" d="M138.44,-826.17C140.69,-782.86 152.3,-598.57 188.25,-556.31 256.68,-475.85 396.57,-490.69 469.15,-505.18"/>
<polygon fill="#000000" fill-opacity="0.200000" stroke="#000000" stroke-width="2" stroke-opacity="0.200000" points="468.39,-507.17 474.69,-506.32 469.24,-503.05 468.39,-507.17"/>
</g>
<!-- src/context/WordsContext.tsx -->
<g id="node18" class="node">
<title>src/context/WordsContext.tsx</title>
<g id="a_node18"><a xlink:href="src/context/WordsContext.tsx" xlink:title="WordsContext.tsx">
<path fill="#bbfeff" stroke="black" d="M553.83,-495.18C553.83,-495.18 478.42,-495.18 478.42,-495.18 475.46,-495.18 472.5,-492.22 472.5,-489.26 472.5,-489.26 472.5,-483.35 472.5,-483.35 472.5,-480.39 475.46,-477.43 478.42,-477.43 478.42,-477.43 553.83,-477.43 553.83,-477.43 556.79,-477.43 559.75,-480.39 559.75,-483.35 559.75,-483.35 559.75,-489.26 559.75,-489.26 559.75,-492.22 556.79,-495.18 553.83,-495.18"/>
<text text-anchor="start" x="480.5" y="-482.63" font-family="Helvetica,sans-Serif" font-size="9.00">WordsContext.tsx</text>
</a>
</g>
</g>
<!-- src/AppContainer.tsx&#45;&gt;src/context/WordsContext.tsx -->
<g id="edge11" class="edge">
<title>src/AppContainer.tsx&#45;&gt;src/context/WordsContext.tsx</title>
<path fill="none" stroke="#000000" stroke-width="2" stroke-opacity="0.200000" d="M137.84,-826.21C137.18,-776.57 136.75,-538.8 188.25,-493.31 208.31,-475.59 376.18,-480.18 463.22,-483.82"/>
<polygon fill="#000000" fill-opacity="0.200000" stroke="#000000" stroke-width="2" stroke-opacity="0.200000" points="463.04,-485.91 469.12,-484.07 463.22,-481.72 463.04,-485.91"/>
</g>
<!-- src/components/Layout.tsx&#45;&gt;node_modules/react -->
<g id="edge22" class="edge">
<title>src/components/Layout.tsx&#45;&gt;node_modules/react</title>
<path fill="none" stroke="#000000" stroke-opacity="0.200000" d="M261.14,-581.96C260.71,-526.19 261.55,-238.05 324.25,-184.31 411.9,-109.18 498.54,-106.69 584,-184.31 597.72,-196.76 579.83,-253.34 592,-267.31 599.34,-275.72 610.45,-279.87 621.33,-281.79"/>
<polygon fill="#000000" fill-opacity="0.200000" stroke="#000000" stroke-opacity="0.200000" points="621.04,-283.87 627.27,-282.59 621.6,-279.71 621.04,-283.87"/>
</g>
<!-- src/components/Footer.tsx -->
<g id="node24" class="node">
<title>src/components/Footer.tsx</title>
<g id="a_node24"><a xlink:href="src/components/Footer.tsx" xlink:title="Footer.tsx">
<path fill="#bbfeff" stroke="black" d="M407.96,-585.18C407.96,-585.18 364.04,-585.18 364.04,-585.18 361.08,-585.18 358.12,-582.22 358.12,-579.26 358.12,-579.26 358.12,-573.35 358.12,-573.35 358.12,-570.39 361.08,-567.43 364.04,-567.43 364.04,-567.43 407.96,-567.43 407.96,-567.43 410.92,-567.43 413.88,-570.39 413.88,-573.35 413.88,-573.35 413.88,-579.26 413.88,-579.26 413.88,-582.22 410.92,-585.18 407.96,-585.18"/>
<text text-anchor="start" x="366.12" y="-572.63" font-family="Helvetica,sans-Serif" font-size="9.00">Footer.tsx</text>
</a>
</g>
</g>
<!-- src/components/Layout.tsx&#45;&gt;src/components/Footer.tsx -->
<g id="edge20" class="edge">
<title>src/components/Layout.tsx&#45;&gt;src/components/Footer.tsx</title>
<path fill="none" stroke="#000000" stroke-width="2" stroke-opacity="0.200000" d="M289.33,-587.9C307.06,-585.75 330.13,-582.96 349.17,-580.65"/>
<polygon fill="#000000" fill-opacity="0.200000" stroke="#000000" stroke-width="2" stroke-opacity="0.200000" points="349.17,-582.76 354.88,-579.96 348.67,-578.6 349.17,-582.76"/>
</g>
<!-- src/components/Header.tsx -->
<g id="node25" class="node">
<title>src/components/Header.tsx</title>
<g id="a_node25"><a xlink:href="src/components/Header.tsx" xlink:title="Header.tsx">
<path fill="#bbfeff" stroke="black" d="M410.21,-615.18C410.21,-615.18 361.79,-615.18 361.79,-615.18 358.83,-615.18 355.88,-612.22 355.88,-609.26 355.88,-609.26 355.88,-603.35 355.88,-603.35 355.88,-600.39 358.83,-597.43 361.79,-597.43 361.79,-597.43 410.21,-597.43 410.21,-597.43 413.17,-597.43 416.12,-600.39 416.12,-603.35 416.12,-603.35 416.12,-609.26 416.12,-609.26 416.12,-612.22 413.17,-615.18 410.21,-615.18"/>
<text text-anchor="start" x="363.88" y="-602.63" font-family="Helvetica,sans-Serif" font-size="9.00">Header.tsx</text>
</a>
</g>
</g>
<!-- src/components/Layout.tsx&#45;&gt;src/components/Header.tsx -->
<g id="edge21" class="edge">
<title>src/components/Layout.tsx&#45;&gt;src/components/Header.tsx</title>
<path fill="none" stroke="#000000" stroke-width="2" stroke-opacity="0.200000" d="M289.33,-594.71C306.37,-596.78 328.34,-599.44 346.92,-601.69"/>
<polygon fill="#000000" fill-opacity="0.200000" stroke="#000000" stroke-width="2" stroke-opacity="0.200000" points="346.52,-603.76 352.73,-602.4 347.03,-599.59 346.52,-603.76"/>
</g>
<!-- src/components/Pages/DictionaryPage.tsx&#45;&gt;node_modules/react -->
<g id="edge38" class="edge">
<title>src/components/Pages/DictionaryPage.tsx&#45;&gt;node_modules/react</title>
<path fill="none" stroke="#000000" stroke-opacity="0.200000" d="M306.96,-1049.28C310.52,-1047.21 313.71,-1044.59 316.25,-1041.31 326.81,-1027.66 317.66,-436.25 324.25,-420.31 356.41,-342.45 378.84,-317.51 456.25,-284.31 510.32,-261.11 580.52,-267.91 621.42,-275.05"/>
<polygon fill="#000000" fill-opacity="0.200000" stroke="#000000" stroke-opacity="0.200000" points="620.94,-277.09 627.22,-276.11 621.69,-272.96 620.94,-277.09"/>
</g>
<!-- src/components/Pages/DictionaryPage.tsx&#45;&gt;src/context/WordsContext.tsx -->
<g id="edge35" class="edge">
<title>src/components/Pages/DictionaryPage.tsx&#45;&gt;src/context/WordsContext.tsx</title>
<path fill="none" stroke="#000000" stroke-width="2" stroke-opacity="0.200000" d="M306.95,-1049.27C310.51,-1047.2 313.7,-1044.59 316.25,-1041.31 332.68,-1020.16 306.16,-579.06 324.25,-559.31 342.96,-538.87 427.97,-565.19 448.25,-546.31 463.12,-532.46 442.42,-516.19 456.25,-501.31 458.54,-498.84 461.17,-496.76 464.02,-495"/>
<polygon fill="#000000" fill-opacity="0.200000" stroke="#000000" stroke-width="2" stroke-opacity="0.200000" points="464.84,-496.94 469.3,-492.4 462.99,-493.17 464.84,-496.94"/>
</g>
<!-- src/Types.ts -->
<g id="node19" class="node">
<title>src/Types.ts</title>
<g id="a_node19"><a xlink:href="src/Types.ts" xlink:title="Types.ts">
<path fill="#ddfeff" stroke="black" d="M677.21,-1080.18C677.21,-1080.18 635.04,-1080.18 635.04,-1080.18 632.08,-1080.18 629.12,-1077.22 629.12,-1074.26 629.12,-1074.26 629.12,-1068.35 629.12,-1068.35 629.12,-1065.39 632.08,-1062.43 635.04,-1062.43 635.04,-1062.43 677.21,-1062.43 677.21,-1062.43 680.17,-1062.43 683.12,-1065.39 683.12,-1068.35 683.12,-1068.35 683.12,-1074.26 683.12,-1074.26 683.12,-1077.22 680.17,-1080.18 677.21,-1080.18"/>
<text text-anchor="start" x="639.25" y="-1067.63" font-family="Helvetica,sans-Serif" font-size="9.00">Types.ts</text>
</a>
</g>
</g>
<!-- src/components/Pages/DictionaryPage.tsx&#45;&gt;src/Types.ts -->
<g id="edge36" class="edge">
<title>src/components/Pages/DictionaryPage.tsx&#45;&gt;src/Types.ts</title>
<path fill="none" stroke="#000000" stroke-width="2" stroke-opacity="0.200000" d="M261.36,-1065.32C262.25,-1094.45 269.46,-1186.34 324.25,-1224.31 419.14,-1290.06 486.67,-1286.39 584,-1224.31 631.65,-1193.91 647.88,-1122.42 652.98,-1089.04"/>
<polygon fill="#000000" fill-opacity="0.200000" stroke="#000000" stroke-width="2" stroke-opacity="0.200000" points="655.02,-1089.58 653.77,-1083.35 650.86,-1089.01 655.02,-1089.58"/>
</g>
<!-- src/components/WordCards/WordCard.tsx -->
<g id="node33" class="node">
<title>src/components/WordCards/WordCard.tsx</title>
<g id="a_node33"><a xlink:href="src/components/WordCards/WordCard.tsx" xlink:title="WordCard.tsx">
<path fill="#bbfeff" stroke="black" d="M415.83,-1155.18C415.83,-1155.18 356.17,-1155.18 356.17,-1155.18 353.21,-1155.18 350.25,-1152.22 350.25,-1149.26 350.25,-1149.26 350.25,-1143.35 350.25,-1143.35 350.25,-1140.39 353.21,-1137.43 356.17,-1137.43 356.17,-1137.43 415.83,-1137.43 415.83,-1137.43 418.79,-1137.43 421.75,-1140.39 421.75,-1143.35 421.75,-1143.35 421.75,-1149.26 421.75,-1149.26 421.75,-1152.22 418.79,-1155.18 415.83,-1155.18"/>
<text text-anchor="start" x="358.25" y="-1142.63" font-family="Helvetica,sans-Serif" font-size="9.00">WordCard.tsx</text>
</a>
</g>
</g>
<!-- src/components/Pages/DictionaryPage.tsx&#45;&gt;src/components/WordCards/WordCard.tsx -->
<g id="edge37" class="edge">
<title>src/components/Pages/DictionaryPage.tsx&#45;&gt;src/components/WordCards/WordCard.tsx</title>
<path fill="none" stroke="#000000" stroke-width="2" stroke-opacity="0.200000" d="M306.77,-1062.09C310.32,-1063.95 313.56,-1066.32 316.25,-1069.31 334.85,-1089.95 305.75,-1110.58 324.25,-1131.31 328.88,-1136.49 334.99,-1140.02 341.55,-1142.4"/>
<polygon fill="#000000" fill-opacity="0.200000" stroke="#000000" stroke-width="2" stroke-opacity="0.200000" points="340.77,-1144.36 347.11,-1144 341.93,-1140.33 340.77,-1144.36"/>
</g>
<!-- src/components/Pages/LessonPage.tsx&#45;&gt;node_modules/react&#45;router&#45;dom -->
<g id="edge46" class="edge">
<title>src/components/Pages/LessonPage.tsx&#45;&gt;node_modules/react&#45;router&#45;dom</title>
<path fill="none" stroke="#000000" stroke-opacity="0.200000" d="M301.12,-876.11C307,-873.76 312.38,-870.32 316.25,-865.31 328.26,-849.77 310.28,-172.12 324.25,-158.31 406.34,-77.14 498.35,-80.9 584,-158.31 597.09,-170.14 580.38,-224.03 592,-237.31 596.05,-241.94 601.25,-245.27 606.92,-247.66"/>
<polygon fill="#000000" fill-opacity="0.200000" stroke="#000000" stroke-opacity="0.200000" points="605.97,-249.55 612.32,-249.54 607.35,-245.58 605.97,-249.55"/>
</g>
<!-- src/components/Buttons/LittleBlobVariation.tsx -->
<g id="node23" class="node">
<title>src/components/Buttons/LittleBlobVariation.tsx</title>
<g id="a_node23"><a xlink:href="src/components/Buttons/LittleBlobVariation.tsx" xlink:title="LittleBlobVariation.tsx">
<path fill="#bbfeff" stroke="black" d="M562.08,-955.18C562.08,-955.18 470.17,-955.18 470.17,-955.18 467.21,-955.18 464.25,-952.22 464.25,-949.26 464.25,-949.26 464.25,-943.35 464.25,-943.35 464.25,-940.39 467.21,-937.43 470.17,-937.43 470.17,-937.43 562.08,-937.43 562.08,-937.43 565.04,-937.43 568,-940.39 568,-943.35 568,-943.35 568,-949.26 568,-949.26 568,-952.22 565.04,-955.18 562.08,-955.18"/>
<text text-anchor="start" x="472.25" y="-942.63" font-family="Helvetica,sans-Serif" font-size="9.00">LittleBlobVariation.tsx</text>
</a>
</g>
</g>
<!-- src/components/Pages/LessonPage.tsx&#45;&gt;src/components/Buttons/LittleBlobVariation.tsx -->
<g id="edge40" class="edge">
<title>src/components/Pages/LessonPage.tsx&#45;&gt;src/components/Buttons/LittleBlobVariation.tsx</title>
<path fill="none" stroke="#000000" stroke-width="2" stroke-opacity="0.200000" d="M301.16,-884.8C306.96,-887.13 312.3,-890.48 316.25,-895.31 332.77,-915.46 305.2,-994.52 324.25,-1012.31 344.39,-1031.11 427.31,-1030.22 448.25,-1012.31 465.69,-997.39 440.81,-978.27 456.25,-961.31 456.53,-960.99 456.82,-960.69 457.12,-960.39"/>
<polygon fill="#000000" fill-opacity="0.200000" stroke="#000000" stroke-width="2" stroke-opacity="0.200000" points="458.23,-962.18 461.63,-956.81 455.62,-958.89 458.23,-962.18"/>
</g>
<!-- src/components/LessonTasks/FeedbackMessage.tsx -->
<g id="node28" class="node">
<title>src/components/LessonTasks/FeedbackMessage.tsx</title>
<g id="a_node28"><a xlink:href="src/components/LessonTasks/FeedbackMessage.tsx" xlink:title="FeedbackMessage.tsx">
<path fill="#bbfeff" stroke="black" d="M433.83,-679.18C433.83,-679.18 338.17,-679.18 338.17,-679.18 335.21,-679.18 332.25,-676.22 332.25,-673.26 332.25,-673.26 332.25,-667.35 332.25,-667.35 332.25,-664.39 335.21,-661.43 338.17,-661.43 338.17,-661.43 433.83,-661.43 433.83,-661.43 436.79,-661.43 439.75,-664.39 439.75,-667.35 439.75,-667.35 439.75,-673.26 439.75,-673.26 439.75,-676.22 436.79,-679.18 433.83,-679.18"/>
<text text-anchor="start" x="340.25" y="-666.63" font-family="Helvetica,sans-Serif" font-size="9.00">FeedbackMessage.tsx</text>
</a>
</g>
</g>
<!-- src/components/Pages/LessonPage.tsx&#45;&gt;src/components/LessonTasks/FeedbackMessage.tsx -->
<g id="edge41" class="edge">
<title>src/components/Pages/LessonPage.tsx&#45;&gt;src/components/LessonTasks/FeedbackMessage.tsx</title>
<path fill="none" stroke="#000000" stroke-width="2" stroke-opacity="0.200000" d="M301.26,-875.89C307.05,-873.56 312.36,-870.18 316.25,-865.31 328.75,-849.67 311.56,-700.79 324.25,-685.31 324.53,-684.97 324.81,-684.64 325.09,-684.32"/>
<polygon fill="#000000" fill-opacity="0.200000" stroke="#000000" stroke-width="2" stroke-opacity="0.200000" points="326.42,-685.95 329.62,-680.45 323.69,-682.75 326.42,-685.95"/>
</g>
<!-- src/components/LessonTasks/FillGapsTask.tsx -->
<g id="node29" class="node">
<title>src/components/LessonTasks/FillGapsTask.tsx</title>
<g id="a_node29"><a xlink:href="src/components/LessonTasks/FillGapsTask.tsx" xlink:title="FillGapsTask.tsx">
<path fill="#bbfeff" stroke="black" d="M421.08,-739.18C421.08,-739.18 350.92,-739.18 350.92,-739.18 347.96,-739.18 345,-736.22 345,-733.26 345,-733.26 345,-727.35 345,-727.35 345,-724.39 347.96,-721.43 350.92,-721.43 350.92,-721.43 421.08,-721.43 421.08,-721.43 424.04,-721.43 427,-724.39 427,-727.35 427,-727.35 427,-733.26 427,-733.26 427,-736.22 424.04,-739.18 421.08,-739.18"/>
<text text-anchor="start" x="353" y="-726.63" font-family="Helvetica,sans-Serif" font-size="9.00">FillGapsTask.tsx</text>
</a>
</g>
</g>
<!-- src/components/Pages/LessonPage.tsx&#45;&gt;src/components/LessonTasks/FillGapsTask.tsx -->
<g id="edge42" class="edge">
<title>src/components/Pages/LessonPage.tsx&#45;&gt;src/components/LessonTasks/FillGapsTask.tsx</title>
<path fill="none" stroke="#000000" stroke-width="2" stroke-opacity="0.200000" d="M301.17,-875.81C306.97,-873.49 312.3,-870.13 316.25,-865.31 333.17,-844.62 307.08,-765.79 324.25,-745.31 327.6,-741.31 331.84,-738.28 336.5,-736"/>
<polygon fill="#000000" fill-opacity="0.200000" stroke="#000000" stroke-width="2" stroke-opacity="0.200000" points="337.03,-738.05 341.86,-733.93 335.51,-734.13 337.03,-738.05"/>
</g>
<!-- src/components/LessonTasks/LessonProgress.tsx -->
<g id="node30" class="node">
<title>src/components/LessonTasks/LessonProgress.tsx</title>
<g id="a_node30"><a xlink:href="src/components/LessonTasks/LessonProgress.tsx" xlink:title="LessonProgress.tsx">
<path fill="#bbfeff" stroke="black" d="M428.21,-709.18C428.21,-709.18 343.79,-709.18 343.79,-709.18 340.83,-709.18 337.88,-706.22 337.88,-703.26 337.88,-703.26 337.88,-697.35 337.88,-697.35 337.88,-694.39 340.83,-691.43 343.79,-691.43 343.79,-691.43 428.21,-691.43 428.21,-691.43 431.17,-691.43 434.12,-694.39 434.12,-697.35 434.12,-697.35 434.12,-703.26 434.12,-703.26 434.12,-706.22 431.17,-709.18 428.21,-709.18"/>
<text text-anchor="start" x="345.88" y="-696.63" font-family="Helvetica,sans-Serif" font-size="9.00">LessonProgress.tsx</text>
</a>
</g>
</g>
<!-- src/components/Pages/LessonPage.tsx&#45;&gt;src/components/LessonTasks/LessonProgress.tsx -->
<g id="edge43" class="edge">
<title>src/components/Pages/LessonPage.tsx&#45;&gt;src/components/LessonTasks/LessonProgress.tsx</title>
<path fill="none" stroke="#000000" stroke-width="2" stroke-opacity="0.200000" d="M301.22,-875.86C307.02,-873.53 312.33,-870.16 316.25,-865.31 337.21,-839.33 302.98,-741.03 324.25,-715.31 325.94,-713.27 327.85,-711.48 329.94,-709.91"/>
<polygon fill="#000000" fill-opacity="0.200000" stroke="#000000" stroke-width="2" stroke-opacity="0.200000" points="330.89,-711.79 335,-706.94 328.76,-708.17 330.89,-711.79"/>
</g>
<!-- src/components/LessonTasks/MatchPictureTask.tsx -->
<g id="node31" class="node">
<title>src/components/LessonTasks/MatchPictureTask.tsx</title>
<g id="a_node31"><a xlink:href="src/components/LessonTasks/MatchPictureTask.tsx" xlink:title="MatchPictureTask.tsx">
<path fill="#bbfeff" stroke="black" d="M430.83,-769.18C430.83,-769.18 341.17,-769.18 341.17,-769.18 338.21,-769.18 335.25,-766.22 335.25,-763.26 335.25,-763.26 335.25,-757.35 335.25,-757.35 335.25,-754.39 338.21,-751.43 341.17,-751.43 341.17,-751.43 430.83,-751.43 430.83,-751.43 433.79,-751.43 436.75,-754.39 436.75,-757.35 436.75,-757.35 436.75,-763.26 436.75,-763.26 436.75,-766.22 433.79,-769.18 430.83,-769.18"/>
<text text-anchor="start" x="343.25" y="-756.63" font-family="Helvetica,sans-Serif" font-size="9.00">MatchPictureTask.tsx</text>
</a>
</g>
</g>
<!-- src/components/Pages/LessonPage.tsx&#45;&gt;src/components/LessonTasks/MatchPictureTask.tsx -->
<g id="edge44" class="edge">
<title>src/components/Pages/LessonPage.tsx&#45;&gt;src/components/LessonTasks/MatchPictureTask.tsx</title>
<path fill="none" stroke="#000000" stroke-width="2" stroke-opacity="0.200000" d="M301.3,-873.11C306.61,-871.12 311.77,-868.57 316.25,-865.31 347.37,-842.68 368.26,-801.32 378.24,-777.83"/>
<polygon fill="#000000" fill-opacity="0.200000" stroke="#000000" stroke-width="2" stroke-opacity="0.200000" points="380.17,-778.65 380.49,-772.31 376.28,-777.07 380.17,-778.65"/>
</g>
<!-- src/components/LessonTasks/WriteWordTask.tsx -->
<g id="node32" class="node">
<title>src/components/LessonTasks/WriteWordTask.tsx</title>
<g id="a_node32"><a xlink:href="src/components/LessonTasks/WriteWordTask.tsx" xlink:title="WriteWordTask.tsx">
<path fill="#bbfeff" stroke="black" d="M425.58,-649.18C425.58,-649.18 346.42,-649.18 346.42,-649.18 343.46,-649.18 340.5,-646.22 340.5,-643.26 340.5,-643.26 340.5,-637.35 340.5,-637.35 340.5,-634.39 343.46,-631.43 346.42,-631.43 346.42,-631.43 425.58,-631.43 425.58,-631.43 428.54,-631.43 431.5,-634.39 431.5,-637.35 431.5,-637.35 431.5,-643.26 431.5,-643.26 431.5,-646.22 428.54,-649.18 425.58,-649.18"/>
<text text-anchor="start" x="348.5" y="-636.63" font-family="Helvetica,sans-Serif" font-size="9.00">WriteWordTask.tsx</text>
</a>
</g>
</g>
<!-- src/components/Pages/LessonPage.tsx&#45;&gt;src/components/LessonTasks/WriteWordTask.tsx -->
<g id="edge45" class="edge">
<title>src/components/Pages/LessonPage.tsx&#45;&gt;src/components/LessonTasks/WriteWordTask.tsx</title>
<path fill="none" stroke="#000000" stroke-width="2" stroke-opacity="0.200000" d="M301.28,-875.91C307.07,-873.58 312.37,-870.19 316.25,-865.31 330.77,-847.02 309.51,-673.41 324.25,-655.31 326.54,-652.5 329.26,-650.16 332.27,-648.23"/>
<polygon fill="#000000" fill-opacity="0.200000" stroke="#000000" stroke-width="2" stroke-opacity="0.200000" points="333.12,-650.15 337.53,-645.58 331.23,-646.4 333.12,-650.15"/>
</g>
<!-- src/hooks/useLesson.tsx -->
<g id="node34" class="node">
<title>src/hooks/useLesson.tsx</title>
<g id="a_node34"><a xlink:href="src/hooks/useLesson.tsx" xlink:title="useLesson.tsx">
<path fill="#bbfeff" stroke="black" d="M417.33,-449.18C417.33,-449.18 354.67,-449.18 354.67,-449.18 351.71,-449.18 348.75,-446.22 348.75,-443.26 348.75,-443.26 348.75,-437.35 348.75,-437.35 348.75,-434.39 351.71,-431.43 354.67,-431.43 354.67,-431.43 417.33,-431.43 417.33,-431.43 420.29,-431.43 423.25,-434.39 423.25,-437.35 423.25,-437.35 423.25,-443.26 423.25,-443.26 423.25,-446.22 420.29,-449.18 417.33,-449.18"/>
<text text-anchor="start" x="356.75" y="-436.63" font-family="Helvetica,sans-Serif" font-size="9.00">useLesson.tsx</text>
</a>
</g>
</g>
<!-- src/components/Pages/LessonPage.tsx&#45;&gt;src/hooks/useLesson.tsx -->
<g id="edge39" class="edge">
<title>src/components/Pages/LessonPage.tsx&#45;&gt;src/hooks/useLesson.tsx</title>
<path fill="none" stroke="#000000" stroke-width="2" stroke-opacity="0.200000" d="M301.35,-875.96C307.13,-873.62 312.41,-870.22 316.25,-865.31 328,-850.29 318.07,-540.34 324.25,-522.31 333.32,-495.86 354.3,-470.85 369.05,-455.57"/>
<polygon fill="#000000" fill-opacity="0.200000" stroke="#000000" stroke-width="2" stroke-opacity="0.200000" points="370.45,-457.14 373.19,-451.4 367.47,-454.17 370.45,-457.14"/>
</g>
<!-- src/components/Pages/SignIn/SignInPage.tsx&#45;&gt;node_modules/react -->
<g id="edge55" class="edge">
<title>src/components/Pages/SignIn/SignInPage.tsx&#45;&gt;node_modules/react</title>
<path fill="none" stroke="#000000" stroke-opacity="0.200000" d="M299.37,-957.18C305.9,-955.07 311.96,-951.67 316.25,-946.31 328.57,-930.91 310.23,-250.17 324.25,-236.31 365.3,-195.72 538.37,-200.96 584,-236.31 595.25,-245.02 581.84,-257.34 592,-267.31 599.84,-275 610.87,-279.01 621.51,-281.02"/>
<polygon fill="#000000" fill-opacity="0.200000" stroke="#000000" stroke-opacity="0.200000" points="621.03,-283.07 627.28,-281.89 621.66,-278.92 621.03,-283.07"/>
</g>
<!-- src/components/Buttons/LittleBlobButton.tsx -->
<g id="node22" class="node">
<title>src/components/Buttons/LittleBlobButton.tsx</title>
<g id="a_node22"><a xlink:href="src/components/Buttons/LittleBlobButton.tsx" xlink:title="LittleBlobButton.tsx">
<path fill="#bbfeff" stroke="black" d="M557.21,-925.18C557.21,-925.18 475.04,-925.18 475.04,-925.18 472.08,-925.18 469.12,-922.22 469.12,-919.26 469.12,-919.26 469.12,-913.35 469.12,-913.35 469.12,-910.39 472.08,-907.43 475.04,-907.43 475.04,-907.43 557.21,-907.43 557.21,-907.43 560.17,-907.43 563.12,-910.39 563.12,-913.35 563.12,-913.35 563.12,-919.26 563.12,-919.26 563.12,-922.22 560.17,-925.18 557.21,-925.18"/>
<text text-anchor="start" x="477.12" y="-912.63" font-family="Helvetica,sans-Serif" font-size="9.00">LittleBlobButton.tsx</text>
</a>
</g>
</g>
<!-- src/components/Pages/SignIn/SignInPage.tsx&#45;&gt;src/components/Buttons/LittleBlobButton.tsx -->
<g id="edge51" class="edge">
<title>src/components/Pages/SignIn/SignInPage.tsx&#45;&gt;src/components/Buttons/LittleBlobButton.tsx</title>
<path fill="none" stroke="#000000" stroke-width="2" stroke-opacity="0.200000" d="M299.43,-963.6C305.5,-965.56 311.37,-968.35 316.25,-972.31 322.73,-977.57 317.2,-984.83 324.25,-989.31 335.88,-996.69 437.86,-998.36 448.25,-989.31 467.87,-972.21 438.91,-950.71 456.25,-931.31 457.76,-929.62 459.42,-928.11 461.21,-926.76"/>
<polygon fill="#000000" fill-opacity="0.200000" stroke="#000000" stroke-width="2" stroke-opacity="0.200000" points="461.98,-928.75 466.05,-923.86 459.83,-925.14 461.98,-928.75"/>
</g>
<!-- src/components/Pages/SignIn/SignInPage.tsx&#45;&gt;src/components/Buttons/LittleBlobVariation.tsx -->
<g id="edge52" class="edge">
<title>src/components/Pages/SignIn/SignInPage.tsx&#45;&gt;src/components/Buttons/LittleBlobVariation.tsx</title>
<path fill="none" stroke="#000000" stroke-width="2" stroke-opacity="0.200000" d="M299.29,-961.82C305.75,-963.91 311.8,-967.2 316.25,-972.31 328.43,-986.27 310.53,-1042.85 324.25,-1055.31 334.45,-1064.57 438.1,-1064.63 448.25,-1055.31 463.69,-1041.12 442.69,-977.3 456.25,-961.31 456.52,-960.98 456.8,-960.67 457.09,-960.36"/>
<polygon fill="#000000" fill-opacity="0.200000" stroke="#000000" stroke-width="2" stroke-opacity="0.200000" points="458.22,-962.15 461.47,-956.69 455.52,-958.93 458.22,-962.15"/>
</g>
<!-- src/components/Pages/SignIn/LogInWindow.tsx -->
<g id="node35" class="node">
<title>src/components/Pages/SignIn/LogInWindow.tsx</title>
<g id="a_node35"><a xlink:href="src/components/Pages/SignIn/LogInWindow.tsx" xlink:title="LogInWindow.tsx">
<path fill="#bbfeff" stroke="black" d="M422.58,-953.18C422.58,-953.18 349.42,-953.18 349.42,-953.18 346.46,-953.18 343.5,-950.22 343.5,-947.26 343.5,-947.26 343.5,-941.35 343.5,-941.35 343.5,-938.39 346.46,-935.43 349.42,-935.43 349.42,-935.43 422.58,-935.43 422.58,-935.43 425.54,-935.43 428.5,-938.39 428.5,-941.35 428.5,-941.35 428.5,-947.26 428.5,-947.26 428.5,-950.22 425.54,-953.18 422.58,-953.18"/>
<text text-anchor="start" x="351.5" y="-940.63" font-family="Helvetica,sans-Serif" font-size="9.00">LogInWindow.tsx</text>
</a>
</g>
</g>
<!-- src/components/Pages/SignIn/SignInPage.tsx&#45;&gt;src/components/Pages/SignIn/LogInWindow.tsx -->
<g id="edge53" class="edge">
<title>src/components/Pages/SignIn/SignInPage.tsx&#45;&gt;src/components/Pages/SignIn/LogInWindow.tsx</title>
<path fill="none" stroke="#000000" stroke-width="2" stroke-opacity="0.200000" d="M299.39,-954.68C310.48,-953.34 322.77,-951.85 334.5,-950.43"/>
<polygon fill="#000000" fill-opacity="0.200000" stroke="#000000" stroke-width="2" stroke-opacity="0.200000" points="334.62,-952.53 340.32,-949.72 334.11,-948.36 334.62,-952.53"/>
</g>
<!-- src/components/Pages/SignIn/SignUpWindow.tsx -->
<g id="node36" class="node">
<title>src/components/Pages/SignIn/SignUpWindow.tsx</title>
<g id="a_node36"><a xlink:href="src/components/Pages/SignIn/SignUpWindow.tsx" xlink:title="SignUpWindow.tsx">
<path fill="#bbfeff" stroke="black" d="M426.33,-983.18C426.33,-983.18 345.67,-983.18 345.67,-983.18 342.71,-983.18 339.75,-980.22 339.75,-977.26 339.75,-977.26 339.75,-971.35 339.75,-971.35 339.75,-968.39 342.71,-965.43 345.67,-965.43 345.67,-965.43 426.33,-965.43 426.33,-965.43 429.29,-965.43 432.25,-968.39 432.25,-971.35 432.25,-971.35 432.25,-977.26 432.25,-977.26 432.25,-980.22 429.29,-983.18 426.33,-983.18"/>
<text text-anchor="start" x="347.75" y="-970.63" font-family="Helvetica,sans-Serif" font-size="9.00">SignUpWindow.tsx</text>
</a>
</g>
</g>
<!-- src/components/Pages/SignIn/SignInPage.tsx&#45;&gt;src/components/Pages/SignIn/SignUpWindow.tsx -->
<g id="edge54" class="edge">
<title>src/components/Pages/SignIn/SignInPage.tsx&#45;&gt;src/components/Pages/SignIn/SignUpWindow.tsx</title>
<path fill="none" stroke="#000000" stroke-width="2" stroke-opacity="0.200000" d="M299.39,-963.93C309.26,-965.13 320.09,-966.44 330.62,-967.72"/>
<polygon fill="#000000" fill-opacity="0.200000" stroke="#000000" stroke-width="2" stroke-opacity="0.200000" points="330.16,-969.77 336.37,-968.41 330.67,-965.6 330.16,-969.77"/>
</g>
<!-- src/components/Pages/StudyCategoryPage.tsx&#45;&gt;node_modules/react&#45;router&#45;dom -->
<g id="edge65" class="edge">
<title>src/components/Pages/StudyCategoryPage.tsx&#45;&gt;node_modules/react&#45;router&#45;dom</title>
<path fill="none" stroke="#000000" stroke-opacity="0.200000" d="M311.29,-1017.23C313.12,-1015.8 314.79,-1014.17 316.25,-1012.31 328.73,-996.43 311,-300.55 324.25,-285.31 360.05,-244.13 523.41,-245.77 606.41,-249.45"/>
<polygon fill="#000000" fill-opacity="0.200000" stroke="#000000" stroke-opacity="0.200000" points="606.1,-251.54 612.19,-249.71 606.29,-247.34 606.1,-251.54"/>
</g>
<!-- src/components/Pages/StudyCategoryPage.tsx&#45;&gt;src/components/Loader.tsx -->
<g id="edge63" class="edge">
<title>src/components/Pages/StudyCategoryPage.tsx&#45;&gt;src/components/Loader.tsx</title>
<path fill="none" stroke="#000000" stroke-width="2" stroke-opacity="0.200000" d="M310.27,-1035.68C312.49,-1037.29 314.51,-1039.15 316.25,-1041.31 336.27,-1066.05 303.74,-1159.97 324.25,-1184.31 330.11,-1191.26 338.66,-1195.16 347.51,-1197.26"/>
<polygon fill="#000000" fill-opacity="0.200000" stroke="#000000" stroke-width="2" stroke-opacity="0.200000" points="347.12,-1199.32 353.39,-1198.28 347.84,-1195.18 347.12,-1199.32"/>
</g>
<!-- src/components/Pages/StudyCategoryPage.tsx&#45;&gt;src/context/WordsContext.tsx -->
<g id="edge60" class="edge">
<title>src/components/Pages/StudyCategoryPage.tsx&#45;&gt;src/context/WordsContext.tsx</title>
<path fill="none" stroke="#000000" stroke-width="2" stroke-opacity="0.200000" d="M311.27,-1017.22C313.11,-1015.79 314.78,-1014.16 316.25,-1012.31 332.18,-992.18 307.21,-569.5 324.25,-550.31 361.18,-508.7 406.84,-570.44 448.25,-533.31 459.16,-523.52 445.91,-511.7 456.25,-501.31 458.62,-498.92 461.32,-496.9 464.22,-495.19"/>
<polygon fill="#000000" fill-opacity="0.200000" stroke="#000000" stroke-width="2" stroke-opacity="0.200000" points="465.05,-497.12 469.56,-492.64 463.24,-493.33 465.05,-497.12"/>
</g>
<!-- src/components/Pages/StudyCategoryPage.tsx&#45;&gt;src/components/Buttons/LittleBlobButton.tsx -->
<g id="edge61" class="edge">
<title>src/components/Pages/StudyCategoryPage.tsx&#45;&gt;src/components/Buttons/LittleBlobButton.tsx</title>
<path fill="none" stroke="#000000" stroke-width="2" stroke-opacity="0.200000" d="M296.6,-1035.64C338.77,-1044.42 408.54,-1051.09 448.25,-1012.31 461.19,-999.67 444.46,-945.02 456.25,-931.31 457.75,-929.56 459.43,-928 461.24,-926.61"/>
<polygon fill="#000000" fill-opacity="0.200000" stroke="#000000" stroke-width="2" stroke-opacity="0.200000" points="462.15,-928.51 466.2,-923.61 459.98,-924.92 462.15,-928.51"/>
</g>
<!-- src/components/Pages/StudyCategoryPage.tsx&#45;&gt;src/components/Buttons/LittleBlobVariation.tsx -->
<g id="edge62" class="edge">
<title>src/components/Pages/StudyCategoryPage.tsx&#45;&gt;src/components/Buttons/LittleBlobVariation.tsx</title>
<path fill="none" stroke="#000000" stroke-width="2" stroke-opacity="0.200000" d="M308.24,-1035.63C311.12,-1037.23 313.83,-1039.11 316.25,-1041.31 323.65,-1048.02 316.03,-1056.64 324.25,-1062.31 369.63,-1093.58 407.77,-1099.71 448.25,-1062.31 464.79,-1047.03 441.74,-978.52 456.25,-961.31 456.52,-960.98 456.8,-960.67 457.08,-960.36"/>
<polygon fill="#000000" fill-opacity="0.200000" stroke="#000000" stroke-width="2" stroke-opacity="0.200000" points="458.22,-962.15 461.46,-956.68 455.51,-958.93 458.22,-962.15"/>
</g>
<!-- src/components/Pages/StudyCategoryPage.tsx&#45;&gt;src/components/WordCards/WordCard.tsx -->
<g id="edge64" class="edge">
<title>src/components/Pages/StudyCategoryPage.tsx&#45;&gt;src/components/WordCards/WordCard.tsx</title>
<path fill="none" stroke="#000000" stroke-width="2" stroke-opacity="0.200000" d="M309.71,-1035.41C312.13,-1037.08 314.34,-1039.03 316.25,-1041.31 329.13,-1056.71 311.18,-1116.06 324.25,-1131.31 328.77,-1136.58 334.83,-1140.16 341.37,-1142.56"/>
<polygon fill="#000000" fill-opacity="0.200000" stroke="#000000" stroke-width="2" stroke-opacity="0.200000" points="340.58,-1144.51 346.93,-1144.16 341.75,-1140.48 340.58,-1144.51"/>
</g>
<!-- src/components/Pages/StudyPage.tsx&#45;&gt;node_modules/react&#45;router&#45;dom -->
<g id="edge69" class="edge">
<title>src/components/Pages/StudyPage.tsx&#45;&gt;node_modules/react&#45;router&#45;dom</title>
<path fill="none" stroke="#000000" stroke-opacity="0.200000" d="M297.76,-907.32C304.93,-905 311.65,-901.26 316.25,-895.31 328.33,-879.68 310.21,-198.19 324.25,-184.31 365.29,-143.72 540.24,-146.66 584,-184.31 602.06,-199.84 575.87,-219.77 592,-237.31 596.11,-241.78 601.29,-245.03 606.9,-247.38"/>
<polygon fill="#000000" fill-opacity="0.200000" stroke="#000000" stroke-opacity="0.200000" points="605.87,-249.24 612.23,-249.24 607.26,-245.28 605.87,-249.24"/>
</g>
<!-- src/components/Pages/StudyPage.tsx&#45;&gt;src/context/WordsContext.tsx -->
<g id="edge66" class="edge">
<title>src/components/Pages/StudyPage.tsx&#45;&gt;src/context/WordsContext.tsx</title>
<path fill="none" stroke="#000000" stroke-width="2" stroke-opacity="0.200000" d="M298,-907.19C305.07,-904.86 311.68,-901.15 316.25,-895.31 328.54,-879.59 310.85,-551.09 324.25,-536.31 342.89,-515.74 426.24,-538.22 448.25,-521.31 455.84,-515.47 449.05,-507.62 456.25,-501.31 458.62,-499.23 461.24,-497.43 464.02,-495.87"/>
<polygon fill="#000000" fill-opacity="0.200000" stroke="#000000" stroke-width="2" stroke-opacity="0.200000" points="464.88,-497.79 469.45,-493.37 463.12,-493.98 464.88,-497.79"/>
</g>
<!-- src/components/Pages/StudyPage.tsx&#45;&gt;src/Types.ts -->
<g id="edge67" class="edge">
<title>src/components/Pages/StudyPage.tsx&#45;&gt;src/Types.ts</title>
<path fill="none" stroke="#000000" stroke-width="2" stroke-opacity="0.200000" d="M297.93,-912.75C305,-914.94 311.63,-918.53 316.25,-924.31 326.35,-936.94 312.66,-1204.03 324.25,-1215.31 334.13,-1224.91 434.95,-1218.9 448.25,-1215.31 515.65,-1197.12 527.75,-1177.64 584,-1136.31 604.85,-1120.98 626.47,-1100.45 640.32,-1086.59"/>
<polygon fill="#000000" fill-opacity="0.200000" stroke="#000000" stroke-width="2" stroke-opacity="0.200000" points="641.61,-1088.28 644.33,-1082.53 638.62,-1085.32 641.61,-1088.28"/>
</g>
<!-- src/components/Buttons/BlobButton.tsx -->
<g id="node21" class="node">
<title>src/components/Buttons/BlobButton.tsx</title>
<g id="a_node21"><a xlink:href="src/components/Buttons/BlobButton.tsx" xlink:title="BlobButton.tsx">
<path fill="#bbfeff" stroke="black" d="M547.46,-1015.18C547.46,-1015.18 484.79,-1015.18 484.79,-1015.18 481.83,-1015.18 478.88,-1012.22 478.88,-1009.26 478.88,-1009.26 478.88,-1003.35 478.88,-1003.35 478.88,-1000.39 481.83,-997.43 484.79,-997.43 484.79,-997.43 547.46,-997.43 547.46,-997.43 550.42,-997.43 553.38,-1000.39 553.38,-1003.35 553.38,-1003.35 553.38,-1009.26 553.38,-1009.26 553.38,-1012.22 550.42,-1015.18 547.46,-1015.18"/>
<text text-anchor="start" x="486.88" y="-1002.63" font-family="Helvetica,sans-Serif" font-size="9.00">BlobButton.tsx</text>
</a>
</g>
</g>
<!-- src/components/Pages/StudyPage.tsx&#45;&gt;src/components/Buttons/BlobButton.tsx -->
<g id="edge68" class="edge">
<title>src/components/Pages/StudyPage.tsx&#45;&gt;src/components/Buttons/BlobButton.tsx</title>
<path fill="none" stroke="#000000" stroke-width="2" stroke-opacity="0.200000" d="M297.99,-913.02C304.97,-915.21 311.55,-918.73 316.25,-924.31 330.49,-941.17 308.03,-1008.34 324.25,-1023.31 364.76,-1060.67 394.61,-1035.97 448.25,-1023.31 452.12,-1022.39 452.5,-1020.63 456.25,-1019.31 460.69,-1017.73 465.39,-1016.31 470.12,-1015.04"/>
<polygon fill="#000000" fill-opacity="0.200000" stroke="#000000" stroke-width="2" stroke-opacity="0.200000" points="470.37,-1017.14 475.68,-1013.64 469.34,-1013.07 470.37,-1017.14"/>
</g>
<!-- src/components/Pages/UserProgressPage.tsx&#45;&gt;src/context/UserDataContext.tsx -->
<g id="edge70" class="edge">
<title>src/components/Pages/UserProgressPage.tsx&#45;&gt;src/context/UserDataContext.tsx</title>
<path fill="none" stroke="#000000" stroke-width="2" stroke-opacity="0.200000" d="M310.34,-840.99C312.54,-839.37 314.54,-837.48 316.25,-835.31 335.43,-810.93 304.36,-580.1 324.25,-556.31 355.95,-518.4 413.54,-510.71 457.2,-511.11"/>
<polygon fill="#000000" fill-opacity="0.200000" stroke="#000000" stroke-width="2" stroke-opacity="0.200000" points="456.94,-513.21 462.99,-511.24 457.03,-509.01 456.94,-513.21"/>
</g>
<!-- src/context/UserDataContext.tsx&#45;&gt;node_modules/react -->
<g id="edge76" class="edge">
<title>src/context/UserDataContext.tsx&#45;&gt;node_modules/react</title>
<path fill="none" stroke="#000000" stroke-opacity="0.200000" d="M566.33,-513.16C573.13,-510.65 579.35,-506.88 584,-501.31 598.59,-483.79 577.39,-313.8 592,-296.31 599.26,-287.61 610.6,-283.6 621.68,-281.92"/>
<polygon fill="#000000" fill-opacity="0.200000" stroke="#000000" stroke-opacity="0.200000" points="621.64,-284.04 627.38,-281.3 621.18,-279.86 621.64,-284.04"/>
</g>
<!-- src/context/UserDataContext.tsx&#45;&gt;src/Types.ts -->
<g id="edge75" class="edge">
<title>src/context/UserDataContext.tsx&#45;&gt;src/Types.ts</title>
<path fill="none" stroke="#000000" stroke-width="2" stroke-opacity="0.200000" d="M543.73,-525.63C557.99,-532.02 574.52,-541.98 584,-556.31 639.82,-640.67 652.42,-972.13 654.69,-1053.29"/>
<polygon fill="#000000" fill-opacity="0.200000" stroke="#000000" stroke-width="2" stroke-opacity="0.200000" points="652.58,-1053.14 654.84,-1059.08 656.78,-1053.03 652.58,-1053.14"/>
</g>
<!-- src/context/WordsContext.tsx&#45;&gt;node_modules/react -->
<g id="edge78" class="edge">
<title>src/context/WordsContext.tsx&#45;&gt;node_modules/react</title>
<path fill="none" stroke="#000000" stroke-opacity="0.200000" d="M560.1,-480.44C569.33,-477.16 578.08,-472.09 584,-464.31 595.31,-449.43 579.96,-310.6 592,-296.31 599.3,-287.64 610.65,-283.63 621.72,-281.96"/>
<polygon fill="#000000" fill-opacity="0.200000" stroke="#000000" stroke-opacity="0.200000" points="621.68,-284.07 627.41,-281.33 621.22,-279.9 621.68,-284.07"/>
</g>
<!-- src/context/WordsContext.tsx&#45;&gt;src/Types.ts -->
<g id="edge77" class="edge">
<title>src/context/WordsContext.tsx&#45;&gt;src/Types.ts</title>
<path fill="none" stroke="#000000" stroke-width="2" stroke-opacity="0.200000" d="M560.11,-488.01C569.12,-490.36 577.76,-494.43 584,-501.31 659.84,-584.84 657.18,-966.04 655.54,-1053.42"/>
<polygon fill="#000000" fill-opacity="0.200000" stroke="#000000" stroke-width="2" stroke-opacity="0.200000" points="653.44,-1053.11 655.42,-1059.15 657.64,-1053.2 653.44,-1053.11"/>
</g>
<!-- src/components/Buttons/AudioButton.tsx -->
<g id="node20" class="node">
<title>src/components/Buttons/AudioButton.tsx</title>
<g id="a_node20"><a xlink:href="src/components/Buttons/AudioButton.tsx" xlink:title="AudioButton.tsx">
<path fill="#bbfeff" stroke="black" d="M550.08,-985.18C550.08,-985.18 482.17,-985.18 482.17,-985.18 479.21,-985.18 476.25,-982.22 476.25,-979.26 476.25,-979.26 476.25,-973.35 476.25,-973.35 476.25,-970.39 479.21,-967.43 482.17,-967.43 482.17,-967.43 550.08,-967.43 550.08,-967.43 553.04,-967.43 556,-970.39 556,-973.35 556,-973.35 556,-979.26 556,-979.26 556,-982.22 553.04,-985.18 550.08,-985.18"/>
<text text-anchor="start" x="484.25" y="-972.63" font-family="Helvetica,sans-Serif" font-size="9.00">AudioButton.tsx</text>
</a>
</g>
</g>
<!-- src/components/Buttons/AudioButton.tsx&#45;&gt;node_modules/@fortawesome/free&#45;solid&#45;svg&#45;icons -->
<g id="edge13" class="edge">
<title>src/components/Buttons/AudioButton.tsx&#45;&gt;node_modules/@fortawesome/free&#45;solid&#45;svg&#45;icons</title>
<path fill="none" stroke="#000000" stroke-opacity="0.200000" d="M556.16,-976.13C566.76,-974.04 577.18,-969.72 584,-961.31 606.05,-934.12 570.12,-358.63 592,-331.31 594.55,-328.12 597.65,-325.53 601.08,-323.44"/>
<polygon fill="#000000" fill-opacity="0.200000" stroke="#000000" stroke-opacity="0.200000" points="601.8,-325.43 606.23,-320.87 599.92,-321.67 601.8,-325.43"/>
</g>
<!-- src/components/Buttons/AudioButton.tsx&#45;&gt;node_modules/@fortawesome/react&#45;fontawesome -->
<g id="edge14" class="edge">
<title>src/components/Buttons/AudioButton.tsx&#45;&gt;node_modules/@fortawesome/react&#45;fontawesome</title>
<path fill="none" stroke="#000000" stroke-opacity="0.200000" d="M556.5,-976.05C566.98,-973.94 577.25,-969.62 584,-961.31 593.62,-949.47 586.22,-426.42 592,-412.31 600.92,-390.55 620.69,-371.85 635.75,-359.97"/>
<polygon fill="#000000" fill-opacity="0.200000" stroke="#000000" stroke-opacity="0.200000" points="636.76,-361.83 640.25,-356.52 634.21,-358.5 636.76,-361.83"/>
</g>
<!-- src/components/Buttons/BlobButton.tsx&#45;&gt;src/Types.ts -->
<g id="edge15" class="edge">
<title>src/components/Buttons/BlobButton.tsx&#45;&gt;src/Types.ts</title>
<path fill="none" stroke="#000000" stroke-width="2" stroke-opacity="0.200000" d="M553.75,-1010.44C563.83,-1012.37 574.57,-1015.19 584,-1019.31 604.77,-1028.37 625.33,-1044.37 638.95,-1056.23"/>
<polygon fill="#000000" fill-opacity="0.200000" stroke="#000000" stroke-width="2" stroke-opacity="0.200000" points="637.28,-1057.55 643.16,-1059.98 640.08,-1054.42 637.28,-1057.55"/>
</g>
<!-- src/components/Buttons/LittleBlobButton.tsx&#45;&gt;src/Types.ts -->
<g id="edge16" class="edge">
<title>src/components/Buttons/LittleBlobButton.tsx&#45;&gt;src/Types.ts</title>
<path fill="none" stroke="#000000" stroke-width="2" stroke-opacity="0.200000" d="M563.4,-921.08C570.8,-923.36 577.99,-926.63 584,-931.31 624.4,-962.71 643.79,-1023.32 651.26,-1053.43"/>
<polygon fill="#000000" fill-opacity="0.200000" stroke="#000000" stroke-width="2" stroke-opacity="0.200000" points="649.18,-1053.75 652.59,-1059.11 653.27,-1052.79 649.18,-1053.75"/>
</g>
<!-- src/components/Buttons/LittleBlobVariation.tsx&#45;&gt;src/Types.ts -->
<g id="edge17" class="edge">
<title>src/components/Buttons/LittleBlobVariation.tsx&#45;&gt;src/Types.ts</title>
<path fill="none" stroke="#000000" stroke-width="2" stroke-opacity="0.200000" d="M568.21,-953.33C573.81,-955.37 579.22,-957.97 584,-961.31 617.42,-984.6 638.89,-1029.15 648.78,-1053.8"/>
<polygon fill="#000000" fill-opacity="0.200000" stroke="#000000" stroke-width="2" stroke-opacity="0.200000" points="646.8,-1054.52 650.91,-1059.37 650.72,-1053.01 646.8,-1054.52"/>
</g>
<!-- src/components/IADLogo.tsx -->
<g id="node26" class="node">
<title>src/components/IADLogo.tsx</title>
<g id="a_node26"><a xlink:href="src/components/IADLogo.tsx" xlink:title="IADLogo.tsx">
<path fill="#bbfeff" stroke="black" d="M542.96,-615.18C542.96,-615.18 489.29,-615.18 489.29,-615.18 486.33,-615.18 483.38,-612.22 483.38,-609.26 483.38,-609.26 483.38,-603.35 483.38,-603.35 483.38,-600.39 486.33,-597.43 489.29,-597.43 489.29,-597.43 542.96,-597.43 542.96,-597.43 545.92,-597.43 548.88,-600.39 548.88,-603.35 548.88,-603.35 548.88,-609.26 548.88,-609.26 548.88,-612.22 545.92,-615.18 542.96,-615.18"/>
<text text-anchor="start" x="491.38" y="-602.63" font-family="Helvetica,sans-Serif" font-size="9.00">IADLogo.tsx</text>
</a>
</g>
</g>
<!-- src/components/Header.tsx&#45;&gt;src/components/IADLogo.tsx -->
<g id="edge18" class="edge">
<title>src/components/Header.tsx&#45;&gt;src/components/IADLogo.tsx</title>
<path fill="none" stroke="#000000" stroke-width="2" stroke-opacity="0.200000" d="M416.39,-606.31C433.54,-606.31 455.42,-606.31 474.22,-606.31"/>
<polygon fill="#000000" fill-opacity="0.200000" stroke="#000000" stroke-width="2" stroke-opacity="0.200000" points="474.15,-608.41 480.15,-606.31 474.15,-604.21 474.15,-608.41"/>
</g>
<!-- src/components/NavBar.tsx -->
<g id="node27" class="node">
<title>src/components/NavBar.tsx</title>
<g id="a_node27"><a xlink:href="src/components/NavBar.tsx" xlink:title="NavBar.tsx">
<path fill="#bbfeff" stroke="black" d="M540.33,-585.18C540.33,-585.18 491.92,-585.18 491.92,-585.18 488.96,-585.18 486,-582.22 486,-579.26 486,-579.26 486,-573.35 486,-573.35 486,-570.39 488.96,-567.43 491.92,-567.43 491.92,-567.43 540.33,-567.43 540.33,-567.43 543.29,-567.43 546.25,-570.39 546.25,-573.35 546.25,-573.35 546.25,-579.26 546.25,-579.26 546.25,-582.22 543.29,-585.18 540.33,-585.18"/>
<text text-anchor="start" x="494" y="-572.63" font-family="Helvetica,sans-Serif" font-size="9.00">NavBar.tsx</text>
</a>
</g>
</g>
<!-- src/components/Header.tsx&#45;&gt;src/components/NavBar.tsx -->
<g id="edge19" class="edge">
<title>src/components/Header.tsx&#45;&gt;src/components/NavBar.tsx</title>
<path fill="none" stroke="#000000" stroke-width="2" stroke-opacity="0.200000" d="M416.39,-599.42C434.46,-595.19 457.79,-589.73 477.24,-585.18"/>
<polygon fill="#000000" fill-opacity="0.200000" stroke="#000000" stroke-width="2" stroke-opacity="0.200000" points="477.56,-587.26 482.92,-583.85 476.6,-583.17 477.56,-587.26"/>
</g>
<!-- src/components/NavBar.tsx&#45;&gt;node_modules/react&#45;router&#45;dom -->
<g id="edge34" class="edge">
<title>src/components/NavBar.tsx&#45;&gt;node_modules/react&#45;router&#45;dom</title>
<path fill="none" stroke="#000000" stroke-opacity="0.200000" d="M546.62,-574.17C560.25,-571.54 575.31,-565.97 584,-554.31 603.06,-528.73 571.87,-292.06 592,-267.31 595.93,-262.47 601.12,-259.02 606.82,-256.59"/>
<polygon fill="#000000" fill-opacity="0.200000" stroke="#000000" stroke-opacity="0.200000" points="607.32,-258.64 612.29,-254.68 605.94,-254.68 607.32,-258.64"/>
</g>
<!-- src/components/NavBar.tsx&#45;&gt;src/context/UserDataContext.tsx -->
<g id="edge33" class="edge">
<title>src/components/NavBar.tsx&#45;&gt;src/context/UserDataContext.tsx</title>
<path fill="none" stroke="#000000" stroke-width="2" stroke-opacity="0.200000" d="M516.12,-567.21C516.12,-556.29 516.12,-545.36 516.12,-534.44"/>
<polygon fill="#000000" fill-opacity="0.200000" stroke="#000000" stroke-width="2" stroke-opacity="0.200000" points="518.23,-534.71 516.13,-528.71 514.03,-534.71 518.23,-534.71"/>
</g>
<!-- src/components/LessonTasks/FillGapsTask.tsx&#45;&gt;node_modules/react -->
<g id="edge25" class="edge">
<title>src/components/LessonTasks/FillGapsTask.tsx&#45;&gt;node_modules/react</title>
<path fill="none" stroke="#000000" stroke-opacity="0.200000" d="M427.21,-728.19C435.32,-725.85 442.96,-721.87 448.25,-715.31 470.76,-687.34 433.71,-420.25 456.25,-392.31 492.93,-346.83 545.14,-404.94 584,-361.31 603.36,-339.57 572.43,-317.85 592,-296.31 599.48,-288.07 610.63,-284.11 621.49,-282.36"/>
<polygon fill="#000000" fill-opacity="0.200000" stroke="#000000" stroke-opacity="0.200000" points="621.7,-284.45 627.41,-281.65 621.2,-280.28 621.7,-284.45"/>
</g>
<!-- src/components/LessonTasks/FillGapsTask.tsx&#45;&gt;src/Types.ts -->
<g id="edge23" class="edge">
<title>src/components/LessonTasks/FillGapsTask.tsx&#45;&gt;src/Types.ts</title>
<path fill="none" stroke="#000000" stroke-width="2" stroke-opacity="0.200000" d="M427.2,-732.42C435.31,-734.77 442.96,-738.74 448.25,-745.31 459.02,-758.68 444.47,-1041.81 456.25,-1054.31 461.78,-1060.17 564.41,-1066.5 620.01,-1069.51"/>
<polygon fill="#000000" fill-opacity="0.200000" stroke="#000000" stroke-width="2" stroke-opacity="0.200000" points="619.71,-1071.6 625.81,-1069.82 619.93,-1067.4 619.71,-1071.6"/>
</g>
<!-- src/components/LessonTasks/FillGapsTask.tsx&#45;&gt;src/components/Buttons/LittleBlobButton.tsx -->
<g id="edge24" class="edge">
<title>src/components/LessonTasks/FillGapsTask.tsx&#45;&gt;src/components/Buttons/LittleBlobButton.tsx</title>
<path fill="none" stroke="#000000" stroke-width="2" stroke-opacity="0.200000" d="M427.4,-732.61C435.4,-734.96 442.95,-738.89 448.25,-745.31 470.64,-772.41 433.55,-876.46 456.25,-903.31 457.73,-905.05 459.38,-906.6 461.18,-907.96"/>
<polygon fill="#000000" fill-opacity="0.200000" stroke="#000000" stroke-width="2" stroke-opacity="0.200000" points="459.83,-909.61 466.07,-910.83 461.95,-905.98 459.83,-909.61"/>
</g>
<!-- src/components/LessonTasks/LessonProgress.tsx&#45;&gt;node_modules/react -->
<g id="edge26" class="edge">
<title>src/components/LessonTasks/LessonProgress.tsx&#45;&gt;node_modules/react</title>
<path fill="none" stroke="#000000" stroke-opacity="0.200000" d="M434.6,-695.49C439.85,-693.12 444.61,-689.83 448.25,-685.31 470.48,-657.69 433.88,-393.82 456.25,-366.31 493.04,-321.05 543.45,-378.23 584,-336.31 596.6,-323.28 579.31,-309.26 592,-296.31 599.72,-288.42 610.82,-284.53 621.57,-282.72"/>
<polygon fill="#000000" fill-opacity="0.200000" stroke="#000000" stroke-opacity="0.200000" points="621.72,-284.82 627.4,-281.98 621.19,-280.66 621.72,-284.82"/>
</g>
<!-- src/components/LessonTasks/MatchPictureTask.tsx&#45;&gt;node_modules/react -->
<g id="edge29" class="edge">
<title>src/components/LessonTasks/MatchPictureTask.tsx&#45;&gt;node_modules/react</title>
<path fill="none" stroke="#000000" stroke-opacity="0.200000" d="M437.23,-754.2C441.44,-751.97 445.23,-749.06 448.25,-745.31 471.03,-716.99 433.44,-446.6 456.25,-418.31 492.92,-372.82 545.91,-431.61 584,-387.31 597.24,-371.91 578.61,-311.57 592,-296.31 599.34,-287.94 610.46,-283.96 621.33,-282.21"/>
<polygon fill="#000000" fill-opacity="0.200000" stroke="#000000" stroke-opacity="0.200000" points="621.55,-284.3 627.27,-281.51 621.06,-280.13 621.55,-284.3"/>
</g>
<!-- src/components/LessonTasks/MatchPictureTask.tsx&#45;&gt;src/Types.ts -->
<g id="edge27" class="edge">
<title>src/components/LessonTasks/MatchPictureTask.tsx&#45;&gt;src/Types.ts</title>
<path fill="none" stroke="#000000" stroke-width="2" stroke-opacity="0.200000" d="M391.63,-769.62C403.58,-794.18 435.41,-863.03 448.25,-924.31 451.54,-939.99 444.69,-1057.21 456.25,-1068.31 478.86,-1090.02 569.47,-1082.44 620.22,-1076.2"/>
<polygon fill="#000000" fill-opacity="0.200000" stroke="#000000" stroke-width="2" stroke-opacity="0.200000" points="620.22,-1078.31 625.91,-1075.47 619.69,-1074.15 620.22,-1078.31"/>
</g>
<!-- src/components/LessonTasks/MatchPictureTask.tsx&#45;&gt;src/components/Buttons/LittleBlobButton.tsx -->
<g id="edge28" class="edge">
<title>src/components/LessonTasks/MatchPictureTask.tsx&#45;&gt;src/components/Buttons/LittleBlobButton.tsx</title>
<path fill="none" stroke="#000000" stroke-width="2" stroke-opacity="0.200000" d="M388.57,-769.38C393.48,-794.87 411.01,-867.57 456.25,-903.31 457.78,-904.52 459.41,-905.62 461.1,-906.63"/>
<polygon fill="#000000" fill-opacity="0.200000" stroke="#000000" stroke-width="2" stroke-opacity="0.200000" points="459.87,-908.36 466.18,-909.11 461.71,-904.59 459.87,-908.36"/>
</g>
<!-- src/components/LessonTasks/WriteWordTask.tsx&#45;&gt;node_modules/react -->
<g id="edge32" class="edge">
<title>src/components/LessonTasks/WriteWordTask.tsx&#45;&gt;node_modules/react</title>
<path fill="none" stroke="#000000" stroke-opacity="0.200000" d="M431.78,-638.14C438.12,-635.92 443.94,-632.48 448.25,-627.31 468.67,-602.8 436,-364.96 456.25,-340.31 493.21,-295.32 537.72,-346.64 584,-311.31 590.01,-306.72 585.98,-300.88 592,-296.31 600.42,-289.91 611.18,-286.33 621.43,-284.35"/>
<polygon fill="#000000" fill-opacity="0.200000" stroke="#000000" stroke-opacity="0.200000" points="621.67,-286.44 627.26,-283.42 621,-282.29 621.67,-286.44"/>
</g>
<!-- src/components/LessonTasks/WriteWordTask.tsx&#45;&gt;src/Types.ts -->
<g id="edge30" class="edge">
<title>src/components/LessonTasks/WriteWordTask.tsx&#45;&gt;src/Types.ts</title>
<path fill="none" stroke="#000000" stroke-width="2" stroke-opacity="0.200000" d="M431.9,-643.97C438.22,-646.4 444.01,-650.01 448.25,-655.31 461.77,-672.17 441.47,-1028.53 456.25,-1044.31 465.99,-1054.7 569.92,-1053.13 584,-1055.31 595.96,-1057.16 608.91,-1059.86 620.44,-1062.52"/>
<polygon fill="#000000" fill-opacity="0.200000" stroke="#000000" stroke-width="2" stroke-opacity="0.200000" points="619.67,-1064.49 625.99,-1063.83 620.64,-1060.4 619.67,-1064.49"/>
</g>
<!-- src/components/LessonTasks/WriteWordTask.tsx&#45;&gt;src/components/Buttons/LittleBlobButton.tsx -->
<g id="edge31" class="edge">
<title>src/components/LessonTasks/WriteWordTask.tsx&#45;&gt;src/components/Buttons/LittleBlobButton.tsx</title>
<path fill="none" stroke="#000000" stroke-width="2" stroke-opacity="0.200000" d="M431.85,-644.01C438.18,-646.44 443.97,-650.03 448.25,-655.31 465.62,-676.72 438.64,-882.09 456.25,-903.31 457.74,-905.1 459.42,-906.69 461.24,-908.08"/>
<polygon fill="#000000" fill-opacity="0.200000" stroke="#000000" stroke-width="2" stroke-opacity="0.200000" points="460.04,-909.8 466.28,-911.02 462.16,-906.18 460.04,-909.8"/>
</g>
<!-- src/components/WordCards/WordCard.tsx&#45;&gt;src/Types.ts -->
<g id="edge73" class="edge">
<title>src/components/WordCards/WordCard.tsx&#45;&gt;src/Types.ts</title>
<path fill="none" stroke="#000000" stroke-width="2" stroke-opacity="0.200000" d="M422.02,-1146.57C462.38,-1145.78 530.07,-1141.05 584,-1120.31 604.31,-1112.49 624.45,-1097.79 638.09,-1086.52"/>
<polygon fill="#000000" fill-opacity="0.200000" stroke="#000000" stroke-width="2" stroke-opacity="0.200000" points="639.44,-1088.13 642.65,-1082.64 636.72,-1084.93 639.44,-1088.13"/>
</g>
<!-- src/components/WordCards/WordCard.tsx&#45;&gt;src/components/Buttons/AudioButton.tsx -->
<g id="edge74" class="edge">
<title>src/components/WordCards/WordCard.tsx&#45;&gt;src/components/Buttons/AudioButton.tsx</title>
<path fill="none" stroke="#000000" stroke-width="2" stroke-opacity="0.200000" d="M421.95,-1145.33C431.88,-1143.25 441.74,-1139.13 448.25,-1131.31 468.18,-1107.35 436.43,-1015.36 456.25,-991.31 459.39,-987.49 463.36,-984.57 467.74,-982.34"/>
<polygon fill="#000000" fill-opacity="0.200000" stroke="#000000" stroke-width="2" stroke-opacity="0.200000" points="468.39,-984.35 473.18,-980.17 466.83,-980.45 468.39,-984.35"/>
</g>
<!-- src/hooks/useLesson.tsx&#45;&gt;node_modules/react -->
<g id="edge80" class="edge">
<title>src/hooks/useLesson.tsx&#45;&gt;node_modules/react</title>
<path fill="none" stroke="#000000" stroke-opacity="0.200000" d="M389.08,-431.15C394.99,-407.46 414.22,-343.93 456.25,-314.31 482.28,-295.96 571.95,-287.52 621.52,-284.18"/>
<polygon fill="#000000" fill-opacity="0.200000" stroke="#000000" stroke-opacity="0.200000" points="621.46,-286.29 627.31,-283.8 621.19,-282.1 621.46,-286.29"/>
</g>
<!-- src/hooks/useLesson.tsx&#45;&gt;node_modules/react&#45;router&#45;dom -->
<g id="edge81" class="edge">
<title>src/hooks/useLesson.tsx&#45;&gt;node_modules/react&#45;router&#45;dom</title>
<path fill="none" stroke="#000000" stroke-opacity="0.200000" d="M388.08,-431.08C391.79,-403.69 406.71,-322.46 456.25,-284.31 499.07,-251.33 562.68,-246.5 606.36,-247.86"/>
<polygon fill="#000000" fill-opacity="0.200000" stroke="#000000" stroke-opacity="0.200000" points="606.15,-249.96 612.22,-248.1 606.31,-245.76 606.15,-249.96"/>
</g>
<!-- src/hooks/useLesson.tsx&#45;&gt;src/context/WordsContext.tsx -->
<g id="edge79" class="edge">
<title>src/hooks/useLesson.tsx&#45;&gt;src/context/WordsContext.tsx</title>
<path fill="none" stroke="#000000" stroke-width="2" stroke-opacity="0.200000" d="M423.68,-446.54C431.87,-448.35 440.44,-450.6 448.25,-453.31 463.1,-458.46 478.91,-466.14 491.42,-472.8"/>
<polygon fill="#000000" fill-opacity="0.200000" stroke="#000000" stroke-width="2" stroke-opacity="0.200000" points="490.19,-474.53 496.47,-475.55 492.2,-470.84 490.19,-474.53"/>
</g>
<!-- src/components/Pages/SignIn/LogInWindow.tsx&#45;&gt;node_modules/react -->
<g id="edge50" class="edge">
<title>src/components/Pages/SignIn/LogInWindow.tsx&#45;&gt;node_modules/react</title>
<path fill="none" stroke="#000000" stroke-opacity="0.200000" d="M392.29,-935.14C404.92,-912.71 436.62,-852.88 448.25,-798.31 452.35,-779.07 443.92,-459.63 456.25,-444.31 492.88,-398.79 546.34,-457.97 584,-413.31 600.8,-393.38 575,-316.06 592,-296.31 599.26,-287.87 610.36,-283.87 621.24,-282.13"/>
<polygon fill="#000000" fill-opacity="0.200000" stroke="#000000" stroke-opacity="0.200000" points="621.47,-284.22 627.18,-281.44 620.98,-280.05 621.47,-284.22"/>
</g>
<!-- src/components/Pages/SignIn/LogInWindow.tsx&#45;&gt;src/context/UserDataContext.tsx -->
<g id="edge47" class="edge">
<title>src/components/Pages/SignIn/LogInWindow.tsx&#45;&gt;src/context/UserDataContext.tsx</title>
<path fill="none" stroke="#000000" stroke-width="2" stroke-opacity="0.200000" d="M392.26,-935.13C404.8,-912.68 436.34,-852.82 448.25,-798.31 453.99,-772.02 443.27,-579.87 456.25,-556.31 462.49,-544.98 473.46,-536.24 484.25,-529.85"/>
<polygon fill="#000000" fill-opacity="0.200000" stroke="#000000" stroke-width="2" stroke-opacity="0.200000" points="485.09,-531.78 489.35,-527.06 483.08,-528.1 485.09,-531.78"/>
</g>
<!-- src/components/Pages/SignIn/LogInWindow.tsx&#45;&gt;src/Types.ts -->
<g id="edge48" class="edge">
<title>src/components/Pages/SignIn/LogInWindow.tsx&#45;&gt;src/Types.ts</title>
<path fill="none" stroke="#000000" stroke-width="2" stroke-opacity="0.200000" d="M428.9,-947.15C436.32,-949.54 443.26,-953.35 448.25,-959.31 465.85,-980.3 436.26,-1063.58 456.25,-1082.31 479.16,-1103.78 569.64,-1089.25 620.3,-1078.99"/>
<polygon fill="#000000" fill-opacity="0.200000" stroke="#000000" stroke-width="2" stroke-opacity="0.200000" points="620.55,-1081.09 626.01,-1077.81 619.7,-1076.97 620.55,-1081.09"/>
</g>
<!-- src/components/Pages/SignIn/LogInWindow.tsx&#45;&gt;src/components/Buttons/LittleBlobButton.tsx -->
<g id="edge49" class="edge">
<title>src/components/Pages/SignIn/LogInWindow.tsx&#45;&gt;src/components/Buttons/LittleBlobButton.tsx</title>
<path fill="none" stroke="#000000" stroke-width="2" stroke-opacity="0.200000" d="M428.95,-935.14C440.12,-932.7 452.31,-930.03 463.91,-927.5"/>
<polygon fill="#000000" fill-opacity="0.200000" stroke="#000000" stroke-width="2" stroke-opacity="0.200000" points="464.27,-929.57 469.68,-926.24 463.37,-925.47 464.27,-929.57"/>
</g>
<!-- src/components/Pages/SignIn/SignUpWindow.tsx&#45;&gt;node_modules/react -->
<g id="edge59" class="edge">
<title>src/components/Pages/SignIn/SignUpWindow.tsx&#45;&gt;node_modules/react</title>
<path fill="none" stroke="#000000" stroke-opacity="0.200000" d="M432.53,-970.42C438.61,-967.99 444.15,-964.44 448.25,-959.31 465.33,-937.89 438.83,-487.44 456.25,-466.31 493.16,-421.53 546.21,-483.35 584,-439.31 604.73,-415.15 571.39,-320.56 592,-296.31 599.2,-287.83 610.29,-283.81 621.18,-282.08"/>
<polygon fill="#000000" fill-opacity="0.200000" stroke="#000000" stroke-opacity="0.200000" points="621.41,-284.17 627.13,-281.39 620.93,-280 621.41,-284.17"/>
</g>
<!-- src/components/Pages/SignIn/SignUpWindow.tsx&#45;&gt;src/context/UserDataContext.tsx -->
<g id="edge56" class="edge">
<title>src/components/Pages/SignIn/SignUpWindow.tsx&#45;&gt;src/context/UserDataContext.tsx</title>
<path fill="none" stroke="#000000" stroke-width="2" stroke-opacity="0.200000" d="M432.51,-970.41C438.6,-967.98 444.14,-964.43 448.25,-959.31 462.25,-941.83 445.57,-575.99 456.25,-556.31 462.41,-544.94 473.37,-536.19 484.17,-529.81"/>
<polygon fill="#000000" fill-opacity="0.200000" stroke="#000000" stroke-width="2" stroke-opacity="0.200000" points="485.02,-531.74 489.28,-527.02 483.01,-528.05 485.02,-531.74"/>
</g>
<!-- src/components/Pages/SignIn/SignUpWindow.tsx&#45;&gt;src/Types.ts -->
<g id="edge57" class="edge">
<title>src/components/Pages/SignIn/SignUpWindow.tsx&#45;&gt;src/Types.ts</title>
<path fill="none" stroke="#000000" stroke-width="2" stroke-opacity="0.200000" d="M388.93,-983.56C394.47,-1007.45 412.89,-1071.06 456.25,-1096.31 480.78,-1110.59 556.02,-1101.08 584,-1096.31 598.26,-1093.87 613.46,-1088.88 626.13,-1084"/>
<polygon fill="#000000" fill-opacity="0.200000" stroke="#000000" stroke-width="2" stroke-opacity="0.200000" points="626.86,-1085.97 631.65,-1081.79 625.3,-1082.07 626.86,-1085.97"/>
</g>
<!-- src/components/Pages/SignIn/SignUpWindow.tsx&#45;&gt;src/components/Buttons/LittleBlobVariation.tsx -->
<g id="edge58" class="edge">
<title>src/components/Pages/SignIn/SignUpWindow.tsx&#45;&gt;src/components/Buttons/LittleBlobVariation.tsx</title>
<path fill="none" stroke="#000000" stroke-width="2" stroke-opacity="0.200000" d="M429.66,-964.98C440.69,-962.57 452.66,-959.96 464.06,-957.46"/>
<polygon fill="#000000" fill-opacity="0.200000" stroke="#000000" stroke-width="2" stroke-opacity="0.200000" points="464.28,-959.57 469.69,-956.24 463.38,-955.46 464.28,-959.57"/>
</g>
<!-- src/components/WordCards/LearningCard.tsx -->
<g id="node37" class="node">
<title>src/components/WordCards/LearningCard.tsx</title>
<g id="a_node37"><a xlink:href="src/components/WordCards/LearningCard.tsx" xlink:title="LearningCard.tsx">
<path fill="#bbfeff" stroke="black" d="M423.33,-1125.18C423.33,-1125.18 348.67,-1125.18 348.67,-1125.18 345.71,-1125.18 342.75,-1122.22 342.75,-1119.26 342.75,-1119.26 342.75,-1113.35 342.75,-1113.35 342.75,-1110.39 345.71,-1107.43 348.67,-1107.43 348.67,-1107.43 423.33,-1107.43 423.33,-1107.43 426.29,-1107.43 429.25,-1110.39 429.25,-1113.35 429.25,-1113.35 429.25,-1119.26 429.25,-1119.26 429.25,-1122.22 426.29,-1125.18 423.33,-1125.18"/>
<text text-anchor="start" x="350.75" y="-1112.63" font-family="Helvetica,sans-Serif" font-size="9.00">LearningCard.tsx</text>
</a>
</g>
</g>
<!-- src/components/WordCards/LearningCard.tsx&#45;&gt;src/Types.ts -->
<g id="edge71" class="edge">
<title>src/components/WordCards/LearningCard.tsx&#45;&gt;src/Types.ts</title>
<path fill="none" stroke="#000000" stroke-width="2" stroke-opacity="0.200000" d="M429.73,-1120.67C470.21,-1123.49 532.33,-1124.38 584,-1110.31 602.51,-1105.26 621.47,-1094.54 635.15,-1085.61"/>
<polygon fill="#000000" fill-opacity="0.200000" stroke="#000000" stroke-width="2" stroke-opacity="0.200000" points="636.24,-1087.41 640.04,-1082.31 633.9,-1083.92 636.24,-1087.41"/>
</g>
<!-- src/components/WordCards/LearningCard.tsx&#45;&gt;src/components/Buttons/AudioButton.tsx -->
<g id="edge72" class="edge">
<title>src/components/WordCards/LearningCard.tsx&#45;&gt;src/components/Buttons/AudioButton.tsx</title>
<path fill="none" stroke="#000000" stroke-width="2" stroke-opacity="0.200000" d="M429.73,-1108.16C436.89,-1104.96 443.52,-1100.5 448.25,-1094.31 462.18,-1076.05 441.47,-1008.87 456.25,-991.31 459.39,-987.57 463.32,-984.7 467.65,-982.5"/>
<polygon fill="#000000" fill-opacity="0.200000" stroke="#000000" stroke-width="2" stroke-opacity="0.200000" points="468.2,-984.54 472.98,-980.35 466.63,-980.64 468.2,-984.54"/>
</g>
<!-- src/main.css -->
<g id="node38" class="node">
<title>src/main.css</title>
<g id="a_node38"><a xlink:href="src/main.css" xlink:title="main.css">
<path fill="#ffffcc" stroke="black" d="M158.08,-874.18C158.08,-874.18 115.92,-874.18 115.92,-874.18 112.96,-874.18 110,-871.22 110,-868.26 110,-868.26 110,-862.35 110,-862.35 110,-859.39 112.96,-856.43 115.92,-856.43 115.92,-856.43 158.08,-856.43 158.08,-856.43 161.04,-856.43 164,-859.39 164,-862.35 164,-862.35 164,-868.26 164,-868.26 164,-871.22 161.04,-874.18 158.08,-874.18"/>
<text text-anchor="start" x="119" y="-861.63" font-family="Helvetica,sans-Serif" font-size="9.00">main.css</text>
</a>
</g>
</g>
<!-- src/main.tsx -->
<g id="node39" class="node">
<title>src/main.tsx</title>
<g id="a_node39"><a xlink:href="src/main.tsx" xlink:title="main.tsx">
<path fill="#bbfeff" stroke="black" d="M69.46,-650.18C69.46,-650.18 27.29,-650.18 27.29,-650.18 24.33,-650.18 21.38,-647.22 21.38,-644.26 21.38,-644.26 21.38,-638.35 21.38,-638.35 21.38,-635.39 24.33,-632.43 27.29,-632.43 27.29,-632.43 69.46,-632.43 69.46,-632.43 72.42,-632.43 75.38,-635.39 75.38,-638.35 75.38,-638.35 75.38,-644.26 75.38,-644.26 75.38,-647.22 72.42,-650.18 69.46,-650.18"/>
<text text-anchor="start" x="31.5" y="-637.63" font-family="Helvetica,sans-Serif" font-size="9.00">main.tsx</text>
</a>
</g>
</g>
<!-- src/main.tsx&#45;&gt;node_modules/react -->
<g id="edge84" class="edge">
<title>src/main.tsx&#45;&gt;node_modules/react</title>
<path fill="none" stroke="#000000" stroke-opacity="0.200000" d="M50.78,-632.11C60.33,-573.09 121.66,-246.04 324.25,-124.31 333.5,-118.75 583.1,-126.44 584,-127.31 606.42,-148.95 571.99,-243.42 592,-267.31 599.3,-276.02 610.65,-280.19 621.73,-282.05"/>
<polygon fill="#000000" fill-opacity="0.200000" stroke="#000000" stroke-opacity="0.200000" points="621.2,-284.1 627.42,-282.78 621.73,-279.94 621.2,-284.1"/>
</g>
<!-- src/main.tsx&#45;&gt;node_modules/react&#45;dom -->
<g id="edge85" class="edge">
<title>src/main.tsx&#45;&gt;node_modules/react&#45;dom</title>
<path fill="none" stroke="#000000" stroke-opacity="0.200000" d="M51.16,-632.06C56.47,-604.23 72.31,-518.8 80.75,-447.31 103.99,-250.34 60.91,-38.31 259.25,-38.31 259.25,-38.31 259.25,-38.31 387,-38.31 430.85,-38.31 553.08,-18.22 584,-49.31 596.4,-61.77 580.76,-193.79 592,-207.31 598.91,-215.61 609.5,-219.79 620.04,-221.79"/>
<polygon fill="#000000" fill-opacity="0.200000" stroke="#000000" stroke-opacity="0.200000" points="619.55,-223.84 625.79,-222.62 620.15,-219.68 619.55,-223.84"/>
</g>
<!-- src/main.tsx&#45;&gt;src/AppContainer.tsx -->
<g id="edge82" class="edge">
<title>src/main.tsx&#45;&gt;src/AppContainer.tsx</title>
<path fill="none" stroke="#000000" stroke-width="2" stroke-opacity="0.200000" d="M53.55,-650.66C67.16,-681.14 110.35,-777.87 128.18,-817.8"/>
<polygon fill="#000000" fill-opacity="0.200000" stroke="#000000" stroke-width="2" stroke-opacity="0.200000" points="126.27,-818.66 130.63,-823.28 130.1,-816.94 126.27,-818.66"/>
</g>
<!-- src/main.tsx&#45;&gt;src/main.css -->
<g id="edge83" class="edge">
<title>src/main.tsx&#45;&gt;src/main.css</title>
<path fill="none" stroke="#000000" stroke-width="2" stroke-opacity="0.200000" d="M50.12,-650.23C53.29,-686.12 66.74,-819.48 93.75,-850.31 96.05,-852.93 98.84,-855.1 101.88,-856.88"/>
<polygon fill="#000000" fill-opacity="0.200000" stroke="#000000" stroke-width="2" stroke-opacity="0.200000" points="100.74,-858.67 107.06,-859.31 102.52,-854.87 100.74,-858.67"/>
</g>
<!-- src/vite&#45;env.d.ts -->
<g id="node40" class="node">
<title>src/vite&#45;env.d.ts</title>
<g id="a_node40"><a xlink:href="src/vite-env.d.ts" xlink:title="vite&#45;env.d.ts">
<path fill="#ddfeff" stroke="black" d="M74.83,-441.18C74.83,-441.18 21.92,-441.18 21.92,-441.18 18.96,-441.18 16,-438.22 16,-435.26 16,-435.26 16,-429.35 16,-429.35 16,-426.39 18.96,-423.43 21.92,-423.43 21.92,-423.43 74.83,-423.43 74.83,-423.43 77.79,-423.43 80.75,-426.39 80.75,-429.35 80.75,-429.35 80.75,-435.26 80.75,-435.26 80.75,-438.22 77.79,-441.18 74.83,-441.18"/>
<text text-anchor="start" x="24" y="-428.63" font-family="Helvetica,sans-Serif" font-size="9.00">vite&#45;env.d.ts</text>
</a>
</g>
</g>
<!-- src/vite&#45;env.d.ts&#45;&gt;node_modules/vite -->
<g id="edge86" class="edge">
<title>src/vite&#45;env.d.ts&#45;&gt;node_modules/vite</title>
<g id="a_edge86"><a xlink:title="not&#45;to&#45;dev&#45;dep">
<path fill="none" stroke="red" d="M49.7,-423.08C51.84,-365.5 64.62,-57.06 93.75,-28.31 146.34,23.61 185.35,-12.31 259.25,-12.31 259.25,-12.31 259.25,-12.31 387,-12.31 474.84,-12.31 512.57,22.83 584,-28.31 633.76,-63.93 649.06,-141.98 653.47,-175.96"/>
<polygon fill="none" stroke="red" points="651.36,-176.02 654.15,-181.73 655.53,-175.53 651.36,-176.02"/>
</a>
</g>
<text text-anchor="middle" x="357" y="-3.76" font-family="Helvetica,sans-Serif" font-size="9.00" fill="red">not&#45;to&#45;dev&#45;dep</text>
</g>
</g>
</svg>
